<?xml version="1.0" encoding="UTF-8" standalone="no"?>
<!-- Created with Inkscape (http://www.inkscape.org/) -->

<svg
   version="1.1"
   id="svg2"
   xml:space="preserve"
   width="4266.6665"
   height="2666.6667"
   viewBox="0 0 4266.6665 2666.6667"
   sodipodi:docname="6461.eps"
   xmlns:inkscape="http://www.inkscape.org/namespaces/inkscape"
   xmlns:sodipodi="http://sodipodi.sourceforge.net/DTD/sodipodi-0.dtd"
   xmlns="http://www.w3.org/2000/svg"
   xmlns:svg="http://www.w3.org/2000/svg"><defs
     id="defs6"><clipPath
       clipPathUnits="userSpaceOnUse"
       id="clipPath58"><path
         d="m 12531.7,2310.3 h -692.3 c -302,0.4 -558.1,1.3 -705.4,3.2 -252.4,3.2 -296.6,224.4 -298.7,367.6 l 2863.3,538.7 c -29.8,-328.1 -47.2,-537.6 -47.4,-577.4 0,-0.7 0,-1.5 0,-2.2 0,-22.4 2,-43.3 5.7,-62.7 47.9,-255.6 387.7,-264 431.6,-264 -66,-0.2 -813.7,-2.5 -1556.8,-3.2"
         id="path56" /></clipPath></defs><sodipodi:namedview
     id="namedview4"
     pagecolor="#ffffff"
     bordercolor="#666666"
     borderopacity="1.0"
     inkscape:pageshadow="2"
     inkscape:pageopacity="0.0"
     inkscape:pagecheckerboard="0" /><g
     id="g8"
     inkscape:groupmode="layer"
     inkscape:label="ink_ext_XXXXXX"
     transform="matrix(1.3333333,0,0,-1.3333333,0,2666.6667)"><g
       id="g10"
       transform="scale(0.1)"><path
         d="M 0,0 H 32000 V 20000 H 0 Z"
         style="fill:#ffffff;fill-opacity:1;fill-rule:nonzero;stroke:none"
         id="path12" /><path
         d="m 3675.17,2143.6 c 0,0 -3374.736,3623.4 -570.72,7546.2 2487.91,3480.7 5388.57,3242.7 7516.75,1830.3 906.4,-601.6 3519.7,-74.2 5743.9,3467.5 3033.3,4829.8 13547.6,1900.5 11630.5,-5530.3 -927.7,-3596 2823.5,-3726.7 912.1,-7321.3 l -25232.53,7.6"
         style="fill:#ebf3fa;fill-opacity:1;fill-rule:nonzero;stroke:none"
         id="path14" /><path
         d="M 6401.92,7052 8600,4663.7 6211.71,2465.6 4013.62,4853.9 6401.92,7052"
         style="fill:#dfebfd;fill-opacity:1;fill-rule:nonzero;stroke:none"
         id="path16" /><path
         d="m 6401.92,7052 442.69,-481 -2388.29,-2198.1 -442.7,481 2388.3,2198.1"
         style="fill:#bed7fb;fill-opacity:1;fill-rule:nonzero;stroke:none"
         id="path18" /><path
         d="m 13376.9,16460.4 1637.7,-233.6 -1086.8,740.7 -55.2,-237.5 -398.3,-72.1 -97.4,-197.5"
         style="fill:#9ec3f6;fill-opacity:1;fill-rule:nonzero;stroke:none"
         id="path20" /><path
         d="m 15014.6,16226.8 -1362.8,702.6 -1335.7,67.2 z"
         style="fill:#cde0fb;fill-opacity:1;fill-rule:nonzero;stroke:none"
         id="path22" /><path
         d="m 13927.8,16967.5 1086.8,-740.7 -841.3,1157.6 z"
         style="fill:#cde0fb;fill-opacity:1;fill-rule:nonzero;stroke:none"
         id="path24" /><path
         d="m 22534.6,13229.6 -411.9,-295.6 -414,292.4 c 91.7,129.1 243.3,214.5 414,214.5 169.7,0 320.2,-83.2 411.9,-211.3"
         style="fill:#ffffff;fill-opacity:1;fill-rule:nonzero;stroke:none"
         id="path26" /><path
         d="m 22122.7,14161.2 c -414,0 -780.1,-205.9 -1002.1,-520.8 l 261.5,-183.5 c 164.3,232.7 435.4,384.2 740.6,384.2 303.1,0 572,-149.4 736.4,-378.9 l 260.4,186.8 c -223.1,310.5 -587,512.2 -996.8,512.2"
         style="fill:#ffffff;fill-opacity:1;fill-rule:nonzero;stroke:none"
         id="path28" /><path
         d="m 22122.7,15530.4 c -876.1,0 -1650.9,-435.4 -2120.4,-1101.3 l 261.4,-183.6 c 411.9,582.7 1091.7,964.8 1859,964.8 760.9,0 1436.4,-375.7 1849.4,-950.9 l 259.3,186.8 c -470.6,656.3 -1240,1084.2 -2108.7,1084.2"
         style="fill:#ffffff;fill-opacity:1;fill-rule:nonzero;stroke:none"
         id="path30" /><path
         d="m 22122.7,14781.3 c -623.2,0 -1176,-308.4 -1512.1,-781.2 l 261.4,-183.6 c 278.5,389.6 735.3,644.6 1250.7,644.6 511.2,0 964.7,-250.8 1244.3,-635 l 259.3,185.7 c -337.2,466.4 -885.7,769.5 -1503.6,769.5"
         style="fill:#ffffff;fill-opacity:1;fill-rule:nonzero;stroke:none"
         id="path32" /><path
         d="m 11425.1,9170.1 c -253.9,-254.7 -533.6,-476 -835.7,-662.4 -732.01,535 -1514.18,993 -2329.07,1363.7 112.03,205.3 222.44,422.1 330.24,648.5 745.89,-98.9 1462.93,-158.2 2117.63,-173.5 170.9,-5 336.8,-5 497.7,-3.7 417.3,4.9 788.8,29.7 1107,74.2 -222.9,-461.8 -521.3,-880.3 -887.8,-1246.8 z m -4640.98,-1131 c 339.88,178.2 681.37,587.3 944.36,964.3 135.64,194.4 271.19,409.6 405.01,641.9 C 8905.06,9295.9 9646.95,8866.6 10343.9,8366.5 9195.12,7752.6 7901.46,7683.1 6784.12,8039.1 Z m -2871.79,2666 c 353.55,-14.2 1009.01,-67.8 1846.26,-258.4 59.91,-13.6 119.77,-27.9 179.61,-42.5 -43.09,-251.3 -74.89,-491.5 -94.52,-717.2 -37.2,-427.7 -39.84,-920.9 79.46,-1273 -363.09,204.4 -696.06,457.3 -994.87,756.1 -445.43,445.4 -788.19,967 -1015.94,1535 z m 2142.03,283.8 c -25.04,-111.7 -48.13,-221.8 -69.32,-330.1 -56.34,13.6 -112.7,27 -169.11,39.9 -953.01,216.9 -1668.14,261 -1999.64,268.5 -82.11,247.3 -142.49,500.3 -180.71,758.5 649.27,-249.7 1380.09,-489.3 2418.78,-736.8 z M 3114.3,12196.2 c -877.89,428.5 -1279.07,842 -1099.53,1135.5 144.87,237.7 672.34,398.7 1479.65,458.1 -162.75,-549.3 -219.35,-1120.4 -185.72,-1685.2 -66.87,29.7 -131.25,60.7 -194.4,91.6 z m 957.13,2288.2 0.11,0.3 c 567.5,-709.3 1403.94,-1434.5 2381.26,-2063.4 -138.58,-421.7 -256.81,-836.2 -352.23,-1233.5 -810.31,196.1 -1752.13,473.4 -2495.94,788 -61.69,616.8 5.48,1241.2 190.68,1830.1 71.89,228.4 167.26,463.8 276.12,678.5 z m -382.52,1954.7 c 149.36,237.1 483.14,359.5 951.81,359.5 224.15,0 479.33,-28 759.76,-84.9 106.48,-21.6 215.23,-46.9 325.84,-76.1 l 0.29,-0.1 c -669.12,-387 -1258.48,-947 -1697.28,-1649.1 l -0.23,-0.4 c -414.13,614.9 -538.63,1136.3 -340.19,1451.1 z m 4488.39,575 c 318.26,0 631.28,-32 937.27,-95.6 -360.91,-157.1 -729.4,-594.3 -1009.1,-995.3 -286.27,-410.3 -572.14,-912.6 -842.08,-1474.7 -728.65,395.9 -1416.92,1002.9 -1745.91,1717.9 768.15,546.3 1691.91,847.7 2659.82,847.7 z m 3247.8,-1345.9 c 595.8,-595.9 991.1,-1311.5 1191,-2059.8 -1059,-77.5 -2029.4,-53.2 -2896.8,72.4 137.65,562.4 230.32,1091.5 270.96,1558.8 44.84,516.1 39.44,1127.3 -169.82,1471.3 606.16,-232.9 1147.56,-584.3 1604.66,-1042.7 z m -2026,-2197.8 c -119.11,-448.1 -265.83,-914.9 -436.77,-1386.2 -65.88,-181.7 -134.11,-360.5 -204.29,-535.8 -642.12,235.7 -1323.66,572.9 -1993.7,989.4 34.62,101.3 70.35,202.8 107.27,304.6 158.81,437.9 331.18,859.4 511.92,1254 632.42,-306.5 1317.5,-504.3 2015.57,-626 z m 57.06,3236.8 c 140.9,-51.1 212.41,-253.3 247.6,-414 55.62,-253.9 65.67,-610.4 29.09,-1031.2 -40.06,-460.5 -132.28,-983.6 -269.53,-1540.6 -674.85,116.1 -1349.24,307.5 -1970.15,608.9 264.63,551.9 544.45,1044 824.22,1445.1 241.63,346.4 477.94,613.6 683.36,772.8 107.19,83.1 251.44,172 377.75,172 26.87,0 52.95,-4.1 77.66,-13 z m -4149.28,-700 c 369.21,-756.4 1080.76,-1379.7 1846.47,-1793.1 -185.5,-404.2 -362.18,-835.6 -524.65,-1283.6 -30.29,-83.5 -59.74,-166.9 -88.53,-250.1 -970.38,631.7 -1791.95,1356.5 -2330.89,2057.9 l -0.22,0.3 c 284.43,485.2 655.04,913.6 1097.82,1268.6 z M 6929.2,11002.6 c -195.42,40.2 -388,82.2 -577.27,125.9 89.1,370.7 198.56,757.2 326.34,1151.1 664.24,-408.3 1339.75,-740.5 1979.35,-976.2 -80.24,-191.6 -162.65,-378.4 -246.83,-559.2 -485.82,69.7 -982.88,156.2 -1481.59,258.4 z M 8023.21,9976.3 c -582.88,251.2 -1182.16,458.7 -1787.43,619 21.34,109.8 44.73,221.6 70.14,335 168.31,-38.2 339,-75.3 511.83,-110.9 505.78,-103.5 1010.33,-191.3 1504.22,-262.4 -97.81,-202.4 -197.66,-396.4 -298.76,-580.7 z M 6377.78,8219.4 c -140.89,51.1 -212.41,253.3 -247.6,414 -55.61,253.9 -65.67,610.4 -29.08,1031.2 18.5,212.8 48.25,439 88.29,675.6 577.49,-153.9 1149.38,-351.8 1706.26,-590.3 -125.44,-216.3 -252.27,-416.9 -379.09,-598.7 -241.64,-346.4 -477.94,-613.6 -683.37,-772.8 -129.99,-100.7 -314.5,-210.1 -455.41,-159 z m 6035.42,2417.9 c -330.6,-59.4 -742.9,-94.1 -1224.6,-99 -747.4,-9.1 -1605.76,49.9 -2510.34,169.1 76.12,165.7 150.73,336 223.51,510.1 280.71,-93.9 553.12,-168.3 812.93,-221 297.6,-60.4 569.3,-90.2 811.7,-90.2 568.3,0 975.4,164 1176.5,483.2 33.1,52.6 60.1,108.3 80.9,167.2 h -289.7 c -4.8,-8.8 -9.9,-17.5 -15.2,-26 -149.4,-237.1 -483.2,-359.6 -951.8,-359.5 -224.2,0 -479.4,28 -759.81,85 -244.45,49.5 -500.79,119.2 -765.1,206.9 69.75,174.5 137.57,352.4 203.05,533 176.59,486.8 327.76,969.5 450.05,1433 991.01,-146.1 2026.41,-150.5 3021.01,-75.5 62.9,-305.1 94.7,-617.3 94.7,-934.5 0,-617.8 -120.1,-1217.1 -357.8,-1781.8 z m 1165.1,798.7 -377.6,8.7 c 121.3,-157.3 148.6,-302.2 73,-424.8 -75.5,-125 -256.3,-227.8 -526.2,-305.8 204.3,543.6 307.1,1116.9 307.1,1705 0,1272 -494.9,2517 -1428.9,3448.4 -904.1,904.1 -2126.15,1428.9 -3448.4,1428.9 -742.48,0 -1459.91,-164.6 -2112.37,-479.2 l -0.64,-0.3 c -209.76,64 -414.08,116.5 -611.22,156.4 -995.14,202 -1701.35,62.4 -1988.21,-393 -272.98,-433.1 -124.37,-1085 417.32,-1845.4 l -0.2,-0.3 c -121.03,-223.7 -237.53,-488.9 -323.17,-743 -1017.8,-60.6 -1562.61,-239.8 -1760.72,-564.2 -230.31,-377.6 84.2,-884.5 1090.86,-1377.3 138.67,-68.1 287.26,-134.9 443.27,-201.8 120.59,-1059.5 603.27,-2086.6 1395.45,-2878.8 448.23,-447 969.51,-798.7 1550.23,-1045.1 1778.98,-750.4 3899.7,-399 5347.8,1045.1 435.8,435.8 781.3,943.5 1025.2,1505.6 496.5,102.8 823.4,263.8 953.4,476.8 90.4,147.3 79.3,310.7 -26,484.1"
         style="fill:#adcbf9;fill-opacity:1;fill-rule:nonzero;stroke:none"
         id="path34" /><path
         d="M 11320.9,10674.8 10646.4,2655 c 0,0 -70.7,-486.1 290.9,-487 594.6,-1.4 2959.3,0 2959.3,0 0,0 -447.4,101.2 -442,328.9 6.4,268.4 788.3,8253.8 788.3,8253.8 l -2922,-75.9"
         style="fill:#d86713;fill-opacity:1;fill-rule:nonzero;stroke:none"
         id="path36" /><path
         d="m 14088.5,2313.5 c -116.9,-0.3 -2375.5,-7.4 -2954.5,0 -252.4,3.2 -296.6,224.4 -298.7,367.6 -1.1,68.6 7.6,119.3 7.6,119.3 l 17.6,208.5 44.7,531.3 39.5,469.3 50.7,603.2 42.7,509.1 479.3,5698.6 2922,75.8 c 0,0 -329.3,-3341.8 -562.2,-5774.4 -26,-271.1 -50.8,-530.9 -73.7,-773.5 -7.4,-77.5 -14.5,-153.2 -21.4,-226.9 -21.6,-230.2 -41.4,-441.5 -58.6,-628.2 -9,-98.3 -17.4,-189.7 -24.9,-273.4 -29.8,-328.1 -47.2,-537.6 -47.4,-577.4 -0.1,-23.2 1.8,-44.8 5.7,-64.9 47.9,-255.6 387.7,-264 431.6,-264"
         style="fill:#f99746;fill-opacity:1;fill-rule:nonzero;stroke:none"
         id="path38" /><path
         d="M 4224.56,15038.9 5867.48,8439.6 6092.42,7535.8 6857.61,4462 H 21073.7 L 18253.3,15038.9 H 4224.56"
         style="fill:#f99746;fill-opacity:1;fill-rule:nonzero;stroke:none"
         id="path40" /><path
         d="M 4224.54,15038.9 3996.85,14963 6554.92,4232.4 6857.65,4462 4224.54,15038.9"
         style="fill:#ee9849;fill-opacity:1;fill-rule:nonzero;stroke:none"
         id="path42" /><path
         d="M 6554.92,4232.4 H 20683.5 l 390.1,229.6 H 6857.65 l -302.73,-229.6"
         style="fill:#d86713;fill-opacity:1;fill-rule:nonzero;stroke:none"
         id="path44" /><path
         d="m 11516.5,2165 h 3059 v 145.301 h -3059 z"
         style="fill:#f1a34f;fill-opacity:1;fill-rule:nonzero;stroke:none"
         id="path46" /><path
         d="m 20385,6411 -2306.7,8488 H 4201.82 v 139.9 H 18253.3 l 2299,-8609.1 -167.3,-18.8"
         style="fill:#f1a34f;fill-opacity:1;fill-rule:nonzero;stroke:none"
         id="path48" /><path
         d="m 13797.9,4232.5 -15.8,-111.1 -2876.9,-581.2 39.5,469.3 18.8,223 h 2834.4"
         style="fill:#d86713;fill-opacity:1;fill-rule:nonzero;stroke:none"
         id="path50" /><g
         id="g52"><g
           id="g54"
           clip-path="url(#clipPath58)"><path
             d="m 10835.3,2310.3 h 3253.2 v 909.5 h -3253.2 z"
             style="fill:#ec8432;fill-opacity:1;fill-rule:nonzero;stroke:none"
             id="path60" /></g></g><path
         d="m 12161.2,2310.1 c -110.9,0 -219,0.1 -321.8,0.2 v 0 h 692.3 c -124.7,-0.1 -249.3,-0.2 -370.5,-0.2"
         style="fill:#e78b37;fill-opacity:1;fill-rule:nonzero;stroke:none"
         id="path62" /><path
         d="m 6857.61,4462 v 0 L 6092.43,7535.8 13102.5,6603.2 6857.65,4462"
         style="fill:#ec8432;fill-opacity:1;fill-rule:nonzero;stroke:none"
         id="path64" /><path
         d="M 4224.54,15038.9 H 18253.3 L 20529.5,6538.4 H 6268.46 l -2043.92,8500.5"
         style="fill:#699dee;fill-opacity:1;fill-rule:nonzero;stroke:none"
         id="path66" /><path
         d="m 14342.5,5463.9 c -40.5,208.4 -242.3,377.4 -450.8,377.4 -208.5,0 -344.6,-169 -304.1,-377.4 40.5,-208.5 242.4,-377.5 450.8,-377.5 208.5,0 344.7,169 304.1,377.5"
         style="fill:#d86713;fill-opacity:1;fill-rule:nonzero;stroke:none"
         id="path68" /><path
         d="M 19867.9,6906.8 H 6732.71 l -1487.58,5925.8 -113.97,454.4 -97.33,387.6 -77.86,310.4 -150.3,598.5 H 17751.5 l 9.1,-32.9 155.8,-565.6 85.6,-310.4 106.9,-387.6 125.3,-454.4 1633.7,-5925.8"
         style="fill:#e9f3fe;fill-opacity:1;fill-rule:nonzero;stroke:none"
         id="path70" /><path
         d="M 19867.9,6886.5 H 6732.71 l -1487.58,5925.9 -113.97,454.4 -97.33,387.6 -77.86,310.3 -150.3,598.6 H 17751.5 l 9.1,-32.9 155.8,-565.7 85.6,-310.3 106.9,-387.6 125.3,-454.4 1633.7,-5925.9"
         style="fill:#e9f3fe;fill-opacity:1;fill-rule:nonzero;stroke:none"
         id="path72" /><path
         d="M 17916.4,13985 H 4955.97 l -150.3,598.5 H 17746.6 l 14,-32.9 155.8,-565.6"
         style="fill:#afcdfb;fill-opacity:1;fill-rule:nonzero;stroke:none"
         id="path74" /><path
         d="m 5165.79,14284.3 c -15.64,62.7 22.54,113.6 85.29,113.6 62.75,0 126.3,-50.9 141.95,-113.6 15.64,-62.8 -22.54,-113.7 -85.29,-113.7 -62.75,0 -126.3,50.9 -141.95,113.7"
         style="fill:#e9f3fe;fill-opacity:1;fill-rule:nonzero;stroke:none"
         id="path76" /><path
         d="m 5543.31,14284.3 c -15.65,62.7 22.53,113.6 85.28,113.6 62.75,0 126.3,-50.9 141.95,-113.6 15.64,-62.8 -22.54,-113.7 -85.29,-113.7 -62.75,0 -126.3,50.9 -141.94,113.7"
         style="fill:#e9f3fe;fill-opacity:1;fill-rule:nonzero;stroke:none"
         id="path78" /><path
         d="m 5949.8,14284.3 c -15.64,62.7 22.55,113.6 85.3,113.6 62.75,0 126.3,-50.9 141.94,-113.6 15.65,-62.8 -22.54,-113.7 -85.29,-113.7 -62.75,0 -126.3,50.9 -141.95,113.7"
         style="fill:#e9f3fe;fill-opacity:1;fill-rule:nonzero;stroke:none"
         id="path80" /><path
         d="M 10824.4,6886.5 H 9525.63 c -12.45,101.5 -23.42,208.8 -33.27,320.8 -17.43,200.7 -30.78,416.7 -40.63,641.3 -2.37,51.9 -4.41,104.1 -6.33,156.8 -2.49,67 -4.65,134.8 -6.57,202.9 -3.17,115.7 -5.66,232.7 -7.47,350.4 l -0.11,0.4 c -2.27,150.1 -3.4,301.2 -3.74,451.7 v 0.1 c -0.11,37.6 -0.11,75.2 -0.11,112.6 v 0.1 c 0,35.4 0.11,70.4 0.23,105.5 1.12,324 5.99,641.8 12.9,937.3 14.93,653.9 39.16,1198.7 52.06,1460.6 v 0.1 c 5.2,107.5 8.6,167.3 8.6,167.3 l 0.34,-0.2 c 2.94,-0.4 22.63,-4 53.64,-11.5 22.75,-5.6 51.61,-13.1 84.43,-23.2 h 0.12 c 29.65,-8.9 62.36,-20 96.76,-33.1 l 0.34,-0.1 c 58.51,-22.5 121.55,-51.2 180.85,-87.3 0.91,-0.5 1.81,-0.9 2.72,-1.4 97.01,-60.2 184.61,-140 224.51,-245.4 34.3,-89.5 114.6,-570.6 211.6,-1209.6 2.7,-18.2 5.4,-36.5 8.2,-55.1 51.3,-339.3 106.7,-720 162.4,-1108.8 59,-411.9 117.9,-832.7 172.2,-1222.6 46.2,-334.4 89.1,-646 125.1,-909.6"
         style="fill:#2b478b;fill-opacity:1;fill-rule:nonzero;stroke:none"
         id="path82" /><path
         d="M 10460.7,6886.5 H 8948.9 c -28.98,124.7 -56.14,245 -80.25,357.9 -66.43,311 -110.11,565.8 -107.74,702.8 1.13,64.2 25.35,114.4 67,153 28.52,26.5 65.19,47.5 108.31,63.9 127.55,48.5 310.78,56.4 502.61,44.2 65.19,-4.1 131.28,-10.4 196.47,-18.3 359.33,-43.6 692.9,-132.6 692.9,-132.6 0,0 22.3,-90.2 48.6,-247.8 19.8,-118.3 41.9,-274.7 58.3,-459.4 9.5,-107.3 17.2,-224.2 21.5,-348.8 1.3,-37.5 2.6,-75.8 4.1,-114.9"
         style="fill:#233862;fill-opacity:1;fill-rule:nonzero;stroke:none"
         id="path84" /><path
         d="m 9762.51,7945.4 -15.05,-109.2 -73.23,-530.4 -12.45,-90.5 -45.38,-328.8 H 8040.89 c -12.22,217.3 -23.54,429.1 -25.69,613.7 -0.22,20.4 -0.34,40.5 -0.34,60.2 0,277.9 24.45,484 104.12,536.1 90.32,58.9 389.89,42.8 708.93,3.7 31.8,-3.8 63.83,-8 95.86,-12.3 185.95,-25 372.01,-55.9 521.63,-82.5 77.63,-13.8 145.43,-26.5 198.16,-36.6 74.47,-14.3 118.95,-23.4 118.95,-23.4"
         style="fill:#c65447;fill-opacity:1;fill-rule:nonzero;stroke:none"
         id="path86" /><path
         d="m 8014.87,11520.9 c 0,0 865.54,559.6 1486.36,273.4 98.93,-45.6 211.78,-172.9 292.56,-261.9 224.41,-247.3 662.91,-4175.2 662.91,-4175.2 0,0 -1244.75,-421.6 -2441.83,143 v 4020.7"
         style="fill:#ffffff;fill-opacity:1;fill-rule:nonzero;stroke:none"
         id="path88" /><path
         d="m 9550.48,11808.5 c 0,0 876.22,-359.1 994.92,-635 118.7,-275.9 504.4,-1970.3 504.4,-2169 0,-198.7 -671.6,-44.4 -779.7,276 -89.8,266.1 -392.64,1083.6 -552.33,1600.7 l -167.29,927.3"
         style="fill:#2b478b;fill-opacity:1;fill-rule:nonzero;stroke:none"
         id="path90" /><path
         d="m 9368.5,11534.9 c -191.29,-37.5 -472.28,2.5 -678.01,138 92.88,221.9 130.96,397.1 144.51,510.4 0.79,6 1.38,11.9 1.97,17.5 6.14,58.8 5.25,98.6 2.38,116.9 h 494.53 c 0,0 135.2,-61.8 135.2,-104.5 0,-22.9 0.2,-44.7 0.6,-65.6 0.99,-56.9 3.26,-106.5 6.23,-149.2 9.4,-138.7 25.32,-204.1 25.32,-204.1 0,0 60.43,-221.5 -132.73,-259.4"
         style="fill:#ffb27d;fill-opacity:1;fill-rule:nonzero;stroke:none"
         id="path92" /><path
         d="m 9475.91,11998.4 c -374.66,-72.3 -592.16,132.4 -640.91,184.9 -6.93,7.5 -10.49,12 -10.49,12 3.96,2 8.11,3.7 12.46,5.5 139.46,56.5 455.96,11.6 632.71,-53.2 0.99,-56.9 3.26,-106.5 6.23,-149.2"
         style="fill:#e2915a;fill-opacity:1;fill-rule:nonzero;stroke:none"
         id="path94" /><path
         d="m 8712.62,12399 c 66.95,-360.3 531.89,-348.5 732.81,-325.8 56.55,6.2 92.12,13.5 92.12,13.5 63.76,17 99.33,117.4 115.86,249 32.8,260.3 -8.64,642.4 -52.6,740.2 -66.2,147 -190.86,306.1 -659.08,191.3 -468.3,-114.8 -315.02,-406.5 -229.11,-868.2"
         style="fill:#ffb27d;fill-opacity:1;fill-rule:nonzero;stroke:none"
         id="path96" /><path
         d="m 9618.24,13276.9 c -64,88.6 -199.69,196.8 -322.92,263.5 -264.75,143.2 -603.6,-4.5 -605.02,-5.1 -382.44,-168.2 -482.31,-460.8 -279.55,-916.6 214.41,-481.9 418.56,-427.7 418.56,-427.7 0,0 -43.33,26.9 -39.42,177.2 0.23,8.5 0.57,15.6 0.96,21.8 1.97,30.8 -8.88,61.6 -31.89,82.2 -47.5,42.4 -70.66,170.6 -30.88,206.3 47.98,43.1 115.42,-9.3 136.96,-49.5 18.82,-28.4 52.53,-38.4 83.93,-18.5 119.03,75.2 41.71,225.7 155.45,317.8 113.74,92.1 344.54,14.8 515.17,88.2 223.35,83.2 46.87,193.6 -1.35,260.4"
         style="fill:#233862;fill-opacity:1;fill-rule:nonzero;stroke:none"
         id="path98" /><path
         d="M 9679.67,6886.5 H 7795.08 c 13.46,390.8 30.78,857.4 49,1329.8 4.64,122.5 9.51,245.5 14.26,367.5 2.15,51.7 4.07,103.1 6.11,154.5 41.65,1049.1 82.96,1996.5 91.67,2047.5 19.81,115.5 38.48,213.8 58.74,299.2 59.19,248.5 132.76,384.8 293.24,502 15.62,11.9 143.96,76.5 257.02,132.9 92.35,45.8 174.51,85.9 177,87 v 0.1 h 0.12 c 18.67,-9 39.27,-35.1 61,-73.7 21.73,-38.5 44.59,-89.9 68.01,-149.9 86.13,-221.3 179.16,-559.9 243.78,-812.8 l 0.23,-0.8 0.12,-0.5 v -0.1 c 41.64,-163.3 71.52,-290.4 80.01,-326.9 14.48,-61.6 33.5,-180.8 56.02,-342.2 v -0.4 c 30.45,-220.2 66.77,-518.8 105.26,-857.8 v -0.1 c 3.96,-34.9 7.91,-70.1 11.87,-105.6 4.54,-40.6 9.17,-81.7 13.81,-123.2 v -0.2 c 1.48,-13.3 2.95,-26.7 4.31,-40 v -0.1 c 14.82,-134.3 29.76,-272.7 44.59,-413.6 l 0.11,-0.4 c 12.67,-116.1 188.78,-200.2 201,-318.5 0.9,-8.6 1.81,-26 2.94,-50.2 2.26,-50.1 4.98,-129.4 8.26,-221.2 1.36,-40.8 2.83,-84.2 4.42,-128.4 6.9,-196.7 15.39,-412.2 25.01,-515.9 0.45,-4.9 0.9,-11.1 1.24,-18.7 1.14,-20.7 2.04,-51.1 2.83,-89.4 1.59,-81.2 2.38,-197.5 2.61,-329.9"
         style="fill:#2b478b;fill-opacity:1;fill-rule:nonzero;stroke:none"
         id="path100" /><path
         d="m 8394.09,10362.9 c -0.56,-2.4 -30.01,-1060.8 766.19,-1189.4 796.2,-128.6 267.18,-162.6 267.18,-162.6 0,0 -1498.05,63.7 -1522.78,103.2 -24.73,39.6 489.41,1248.8 489.41,1248.8"
         style="fill:#233862;fill-opacity:1;fill-rule:nonzero;stroke:none"
         id="path102" /><path
         d="m 9066.81,8719.1 c 0,0 -14.94,-10.6 -43.62,-29.1 l -1.49,-0.9 c -121.46,-77.5 -481.97,-288.9 -1006.87,-430.6 -55.08,-14.9 -112.06,-29.1 -170.71,-42.1 4.65,122.4 9.5,245.4 14.24,367.4 -69.33,5.4 -135.69,14.2 -197.32,27.3 2.09,16.1 4.26,32.2 6.33,48.4 66.77,27.4 133.13,53.8 197.13,78.8 52.12,20.4 102.56,39.8 150.33,57.7 215.62,81.9 375.45,137.4 375.45,137.4 l 638.25,-202.1 38.28,-12.2"
         style="fill:#233862;fill-opacity:1;fill-rule:nonzero;stroke:none"
         id="path104" /><path
         d="m 9235.74,8736.8 c 0,0 -82,-20.5 -212.55,-46.8 l -1.39,-0.3 c -240.74,-48.3 -645.46,-116.2 -1006.97,-112.5 -53.31,0.6 -105.73,2.6 -156.47,6.6 -69.33,5.4 -135.69,14.2 -197.32,27.3 -132.13,27.9 -242.81,75.1 -315.21,148.9 -537.75,547.7 293.46,2513.6 468.22,2704.9 204.05,223.3 576.43,301.6 782.06,328.5 8.6,1.1 16.81,2.2 24.82,3.2 72.3,8.6 118.69,10.4 121.26,10.5 h 0.1 c 0,0 -16.12,-51.9 -43.12,-139.8 -10.49,-34 -22.65,-73.5 -36,-117.5 -126.3,-413.6 -370.02,-1226.5 -477.42,-1685 -39.37,-167.7 -60.44,-288 -50.84,-323.9 41.93,-156.5 476.43,-237.1 751.69,-272.7 114.83,-14.8 201.96,-21.8 221.45,-23.3 1.38,0 2.67,-0.1 4.05,-0.3 l 15.93,-65.3 38.08,-156.6 37.48,-153.8 32.15,-132.1"
         style="fill:#2b478b;fill-opacity:1;fill-rule:nonzero;stroke:none"
         id="path106" /><path
         d="m 10735.6,7794.5 -1846.89,77.8 374.7,2301.6 1846.89,-77.8 -374.7,-2301.6"
         style="fill:#f99746;fill-opacity:1;fill-rule:nonzero;stroke:none"
         id="path108" /><path
         d="m 9112.11,9244.6 c 0,0 359.52,25 377.55,-58.8 42.03,-195.3 -309.08,-355.7 -422.83,-344.7 -113.74,10.9 -37.46,416.5 45.28,403.5"
         style="fill:#ffb27d;fill-opacity:1;fill-rule:nonzero;stroke:none"
         id="path110" /><path
         d="m 11009.3,9628.7 c 0,0 -344,107.6 -380.9,30.2 -86.1,-180.3 218.4,-417.6 331.6,-433.2 113.2,-15.6 132.8,396.6 49.3,403"
         style="fill:#ffb27d;fill-opacity:1;fill-rule:nonzero;stroke:none"
         id="path112" /><path
         d="m 8779.59,11922.6 c 0,0 -151.25,-72 -227.07,-180.8 0,0 565.35,-981.6 562.83,-972.4 -2.53,9.2 -191.11,1027.5 -335.76,1153.2"
         style="fill:#233862;fill-opacity:1;fill-rule:nonzero;stroke:none"
         id="path114" /><path
         d="m 9483.75,11908.8 c 49.79,-18.8 145.29,-116.6 166.81,-170.7 l 67.21,-856.9 c 0,0 -143.5,628.8 -216.54,913.1 -18.57,72.3 -15.15,94.2 -17.48,114.5"
         style="fill:#233862;fill-opacity:1;fill-rule:nonzero;stroke:none"
         id="path116" /><path
         d="m 9875.63,10148.1 c 0,0 14.6,63.9 98.67,56.5 84.1,-7.4 556.3,-30.7 556.3,-30.7 0,0 91.1,1.5 82.7,-56.8 l -737.67,31"
         style="fill:#c65447;fill-opacity:1;fill-rule:nonzero;stroke:none"
         id="path118" /><path
         d="m 9333.88,12317.7 c 0,0 61.31,-55.9 160.21,-38.5 58.66,10.2 91.49,86.5 91.49,86.5 0,0 -112.72,20.3 -251.7,-48"
         style="fill:#ffffff;fill-opacity:1;fill-rule:nonzero;stroke:none"
         id="path120" /><path
         d="m 18085.2,11601.5 -1364.2,-5.1 -442.4,1693.7 1364.2,5 442.4,-1693.6"
         style="fill:#ffffff;fill-opacity:1;fill-rule:nonzero;stroke:none"
         id="path122" /><path
         d="m 17304.5,13072.6 -572,-2.1 -6.6,25 572,2.1 6.6,-25"
         style="fill:#adcbf9;fill-opacity:1;fill-rule:nonzero;stroke:none"
         id="path124" /><path
         d="m 17395.8,13002.9 -718.2,-2.6 -6.5,25.1 718.2,2.6 6.5,-25.1"
         style="fill:#adcbf9;fill-opacity:1;fill-rule:nonzero;stroke:none"
         id="path126" /><path
         d="m 17593.3,12658.3 -932.9,-3.5 -6.5,25.1 932.8,3.4 6.6,-25"
         style="fill:#adcbf9;fill-opacity:1;fill-rule:nonzero;stroke:none"
         id="path128" /><path
         d="m 17614.9,12575.7 -932.9,-3.4 -6.5,25 932.8,3.5 6.6,-25.1"
         style="fill:#adcbf9;fill-opacity:1;fill-rule:nonzero;stroke:none"
         id="path130" /><path
         d="m 17636.4,12493.1 -932.8,-3.4 -6.6,25 932.9,3.5 6.5,-25.1"
         style="fill:#adcbf9;fill-opacity:1;fill-rule:nonzero;stroke:none"
         id="path132" /><path
         d="m 17658,12410.5 -932.8,-3.4 -6.6,25.1 932.8,3.4 6.6,-25.1"
         style="fill:#adcbf9;fill-opacity:1;fill-rule:nonzero;stroke:none"
         id="path134" /><path
         d="m 17679.6,12327.9 -932.9,-3.4 -6.5,25.1 932.8,3.4 6.6,-25.1"
         style="fill:#adcbf9;fill-opacity:1;fill-rule:nonzero;stroke:none"
         id="path136" /><path
         d="m 17732.1,12127 -932.9,-3.4 -6.5,25 932.8,3.5 6.6,-25.1"
         style="fill:#adcbf9;fill-opacity:1;fill-rule:nonzero;stroke:none"
         id="path138" /><path
         d="m 17753.6,12044.4 -932.8,-3.4 -6.6,25 932.9,3.5 6.5,-25.1"
         style="fill:#adcbf9;fill-opacity:1;fill-rule:nonzero;stroke:none"
         id="path140" /><path
         d="m 17775.2,11961.8 -932.8,-3.4 -6.6,25.1 932.8,3.4 6.6,-25.1"
         style="fill:#adcbf9;fill-opacity:1;fill-rule:nonzero;stroke:none"
         id="path142" /><path
         d="m 17796.8,11879.3 -932.9,-3.5 -6.5,25.1 932.8,3.4 6.6,-25"
         style="fill:#adcbf9;fill-opacity:1;fill-rule:nonzero;stroke:none"
         id="path144" /><path
         d="m 17818.3,11796.7 -932.8,-3.5 -6.5,25.1 932.8,3.4 6.5,-25"
         style="fill:#adcbf9;fill-opacity:1;fill-rule:nonzero;stroke:none"
         id="path146" /><path
         d="m 18634.9,9496.9 -1364.2,-5 -442.4,1693.6 1364.2,5.1 442.4,-1693.7"
         style="fill:#ffffff;fill-opacity:1;fill-rule:nonzero;stroke:none"
         id="path148" /><path
         d="m 17854.2,10968 -572,-2.1 -6.6,25.1 572.1,2.1 6.5,-25.1"
         style="fill:#adcbf9;fill-opacity:1;fill-rule:nonzero;stroke:none"
         id="path150" /><path
         d="m 17945.5,10898.4 -718.1,-2.6 -6.6,25 718.2,2.7 6.5,-25.1"
         style="fill:#adcbf9;fill-opacity:1;fill-rule:nonzero;stroke:none"
         id="path152" /><path
         d="m 18143,10553.7 -932.8,-3.4 -6.6,25 932.9,3.5 6.5,-25.1"
         style="fill:#adcbf9;fill-opacity:1;fill-rule:nonzero;stroke:none"
         id="path154" /><path
         d="m 18164.6,10471.1 -932.9,-3.4 -6.5,25.1 932.8,3.4 6.6,-25.1"
         style="fill:#adcbf9;fill-opacity:1;fill-rule:nonzero;stroke:none"
         id="path156" /><path
         d="m 18186.1,10388.6 -932.8,-3.5 -6.5,25.1 932.8,3.4 6.5,-25"
         style="fill:#adcbf9;fill-opacity:1;fill-rule:nonzero;stroke:none"
         id="path158" /><path
         d="m 18207.7,10306 -932.8,-3.5 -6.6,25.1 932.9,3.4 6.5,-25"
         style="fill:#adcbf9;fill-opacity:1;fill-rule:nonzero;stroke:none"
         id="path160" /><path
         d="m 18229.3,10223.4 -932.9,-3.4 -6.5,25 932.8,3.5 6.6,-25.1"
         style="fill:#adcbf9;fill-opacity:1;fill-rule:nonzero;stroke:none"
         id="path162" /><path
         d="m 18281.8,10022.4 -932.9,-3.4 -6.5,25.1 932.8,3.4 6.6,-25.1"
         style="fill:#adcbf9;fill-opacity:1;fill-rule:nonzero;stroke:none"
         id="path164" /><path
         d="m 18303.3,9939.9 -932.8,-3.5 -6.5,25.1 932.8,3.4 6.5,-25"
         style="fill:#adcbf9;fill-opacity:1;fill-rule:nonzero;stroke:none"
         id="path166" /><path
         d="m 18324.9,9857.3 -932.8,-3.5 -6.6,25.1 932.9,3.4 6.5,-25"
         style="fill:#adcbf9;fill-opacity:1;fill-rule:nonzero;stroke:none"
         id="path168" /><path
         d="m 18346.5,9774.7 -932.9,-3.4 -6.5,25 932.8,3.5 6.6,-25.1"
         style="fill:#adcbf9;fill-opacity:1;fill-rule:nonzero;stroke:none"
         id="path170" /><path
         d="m 18368,9692.1 -932.8,-3.4 -6.5,25 932.8,3.5 6.5,-25.1"
         style="fill:#adcbf9;fill-opacity:1;fill-rule:nonzero;stroke:none"
         id="path172" /><path
         d="m 19188.4,7378.2 -1364.3,-5 -442.4,1693.6 1364.3,5.1 442.4,-1693.7"
         style="fill:#ffffff;fill-opacity:1;fill-rule:nonzero;stroke:none"
         id="path174" /><path
         d="m 18407.6,8849.3 -572,-2.1 -6.6,25.1 572.1,2.1 6.5,-25.1"
         style="fill:#adcbf9;fill-opacity:1;fill-rule:nonzero;stroke:none"
         id="path176" /><path
         d="m 18498.9,8779.7 -718.1,-2.7 -6.6,25.1 718.2,2.7 6.5,-25.1"
         style="fill:#adcbf9;fill-opacity:1;fill-rule:nonzero;stroke:none"
         id="path178" /><path
         d="m 18696.4,8435 -932.8,-3.4 -6.6,25 932.9,3.5 6.5,-25.1"
         style="fill:#adcbf9;fill-opacity:1;fill-rule:nonzero;stroke:none"
         id="path180" /><path
         d="m 18718,8352.4 -932.9,-3.4 -6.5,25.1 932.8,3.4 6.6,-25.1"
         style="fill:#adcbf9;fill-opacity:1;fill-rule:nonzero;stroke:none"
         id="path182" /><path
         d="m 18739.6,8269.9 -932.9,-3.5 -6.5,25.1 932.8,3.4 6.6,-25"
         style="fill:#adcbf9;fill-opacity:1;fill-rule:nonzero;stroke:none"
         id="path184" /><path
         d="m 18761.1,8187.3 -932.8,-3.5 -6.6,25.1 932.9,3.4 6.5,-25"
         style="fill:#adcbf9;fill-opacity:1;fill-rule:nonzero;stroke:none"
         id="path186" /><path
         d="m 18782.7,8104.7 -932.8,-3.4 -6.6,25 932.8,3.5 6.6,-25.1"
         style="fill:#adcbf9;fill-opacity:1;fill-rule:nonzero;stroke:none"
         id="path188" /><path
         d="m 18835.2,7903.7 -932.8,-3.4 -6.6,25.1 932.8,3.4 6.6,-25.1"
         style="fill:#adcbf9;fill-opacity:1;fill-rule:nonzero;stroke:none"
         id="path190" /><path
         d="m 18856.8,7821.2 -932.9,-3.5 -6.5,25.1 932.8,3.4 6.6,-25"
         style="fill:#adcbf9;fill-opacity:1;fill-rule:nonzero;stroke:none"
         id="path192" /><path
         d="m 18878.3,7738.6 -932.8,-3.5 -6.6,25.1 932.9,3.4 6.5,-25"
         style="fill:#adcbf9;fill-opacity:1;fill-rule:nonzero;stroke:none"
         id="path194" /><path
         d="m 18899.9,7656 -932.8,-3.4 -6.6,25 932.8,3.5 6.6,-25.1"
         style="fill:#adcbf9;fill-opacity:1;fill-rule:nonzero;stroke:none"
         id="path196" /><path
         d="m 18921.5,7573.4 -932.9,-3.4 -6.5,25 932.8,3.5 6.6,-25.1"
         style="fill:#adcbf9;fill-opacity:1;fill-rule:nonzero;stroke:none"
         id="path198" /><path
         d="m 17394.6,7363.9 -4771.4,-17.6 -1373.2,5257.3 621.5,669.3 3975.8,14.7 1547.3,-5923.7"
         style="fill:#ffffff;fill-opacity:1;fill-rule:nonzero;stroke:none"
         id="path200" /><path
         d="m 14533,12399.1 -1681.6,-6.2 -19.3,73.7 1681.6,6.2 19.3,-73.7"
         style="fill:#adcbf9;fill-opacity:1;fill-rule:nonzero;stroke:none"
         id="path202" /><path
         d="m 14801.5,12194.4 -2111.3,-7.7 -19.2,73.6 2111.2,7.8 19.3,-73.7"
         style="fill:#adcbf9;fill-opacity:1;fill-rule:nonzero;stroke:none"
         id="path204" /><path
         d="m 15382,11181.2 -2742.3,-10.1 -19.3,73.6 2742.3,10.2 19.3,-73.7"
         style="fill:#adcbf9;fill-opacity:1;fill-rule:nonzero;stroke:none"
         id="path206" /><path
         d="m 15445.4,10938.4 -2742.3,-10.1 -19.3,73.7 2742.3,10.1 19.3,-73.7"
         style="fill:#adcbf9;fill-opacity:1;fill-rule:nonzero;stroke:none"
         id="path208" /><path
         d="m 15508.8,10695.7 -2742.3,-10.2 -19.2,73.7 2742.2,10.1 19.3,-73.6"
         style="fill:#adcbf9;fill-opacity:1;fill-rule:nonzero;stroke:none"
         id="path210" /><path
         d="m 15572.2,10452.9 -2742.3,-10.1 -19.2,73.6 2742.2,10.2 19.3,-73.7"
         style="fill:#adcbf9;fill-opacity:1;fill-rule:nonzero;stroke:none"
         id="path212" /><path
         d="m 15635.6,10210.1 -2742.3,-10.1 -19.2,73.7 2742.3,10.1 19.2,-73.7"
         style="fill:#adcbf9;fill-opacity:1;fill-rule:nonzero;stroke:none"
         id="path214" /><path
         d="m 15789.9,9619.4 -2742.3,-10.1 -19.2,73.6 2742.3,10.2 19.2,-73.7"
         style="fill:#adcbf9;fill-opacity:1;fill-rule:nonzero;stroke:none"
         id="path216" /><path
         d="m 15853.3,9376.6 -2742.3,-10.1 -19.2,73.7 2742.3,10.1 19.2,-73.7"
         style="fill:#adcbf9;fill-opacity:1;fill-rule:nonzero;stroke:none"
         id="path218" /><path
         d="m 15916.7,9133.9 -2742.3,-10.2 -19.2,73.7 2742.3,10.1 19.2,-73.6"
         style="fill:#adcbf9;fill-opacity:1;fill-rule:nonzero;stroke:none"
         id="path220" /><path
         d="m 15980.1,8891.1 -2742.2,-10.1 -19.3,73.7 2742.3,10.1 19.2,-73.7"
         style="fill:#adcbf9;fill-opacity:1;fill-rule:nonzero;stroke:none"
         id="path222" /><path
         d="m 16043.5,8648.3 -2742.2,-10.1 -19.3,73.7 2742.3,10.1 19.2,-73.7"
         style="fill:#adcbf9;fill-opacity:1;fill-rule:nonzero;stroke:none"
         id="path224" /><path
         d="m 11250,12603.6 795.6,2.9 -174.1,666.4 z"
         style="fill:#adcbf9;fill-opacity:1;fill-rule:nonzero;stroke:none"
         id="path226" /><path
         d="m 22742.3,3240.8 h -3884.4 v 1371.9 h 3896.8 c 303,0 548.6,-245.6 548.6,-548.5 v -262.4 c 0,-309.8 -251.2,-561 -561,-561"
         style="fill:#fcecdb;fill-opacity:1;fill-rule:nonzero;stroke:none"
         id="path228" /><path
         d="m 26618.7,4048.3 v -206.4 c 0,-110.3 -29.6,-213.6 -81.5,-302.4 -104.1,-178.6 -297.8,-298.7 -519.6,-298.7 h -7278.7 c -48.2,0 -87.2,39.1 -87.2,87.1 v 31 c 0,48 39,87.1 87.2,87.1 h 4437 c 23.8,28.9 44.7,60.2 62.3,93.5 41.6,78.3 65.1,167.6 65.1,262.3 v 262.4 c 0,48.2 -6.3,95.1 -18,139.6 -19.9,75.5 -55.4,144.7 -102.9,203.7 h -4443.5 c -48.2,0 -87.2,39 -87.2,87.2 v 30.8 c 0,48.2 39,87.2 87.2,87.2 h 7315.4 c 257.8,0 475.2,-172.8 542.7,-408.9 14.2,-49.4 21.7,-101.6 21.7,-155.5"
         style="fill:#699dee;fill-opacity:1;fill-rule:nonzero;stroke:none"
         id="path230" /><path
         d="m 26597,4203.8 h -3311.7 c -19.9,75.5 -55.4,144.7 -102.9,203.7 h -4443.5 c -48.2,0 -87.2,39 -87.2,87.2 v 30.8 c 0,48.2 39,87.2 87.2,87.2 h 7315.4 c 257.8,0 475.2,-172.8 542.7,-408.9"
         style="fill:#548ee2;fill-opacity:1;fill-rule:nonzero;stroke:none"
         id="path232" /><path
         d="m 18857.9,3926.8 539,-23.1 -539,-13.9 z"
         style="fill:#f4d2b8;fill-opacity:1;fill-rule:nonzero;stroke:none"
         id="path234" /><path
         d="m 18857.9,3711.5 1282.2,-23.1 -1282.2,-13.9 z"
         style="fill:#f4d2b8;fill-opacity:1;fill-rule:nonzero;stroke:none"
         id="path236" /><path
         d="m 19784.3,2176.6 h 4135 v 1067.1 h -4168.6 c -285.4,0 -516.7,-231.4 -516.7,-516.8 v 0 c 0,-303.9 246.3,-550.3 550.3,-550.3"
         style="fill:#2b478b;fill-opacity:1;fill-rule:nonzero;stroke:none"
         id="path238" /><path
         d="M 23681.9,2176.6 H 28388 v 1067.1 h -4718 c -290.2,0 -525.4,-235.2 -525.4,-525.4 v -4.4 c 0,-296.7 240.6,-537.3 537.3,-537.3"
         style="fill:#fcecdb;fill-opacity:1;fill-rule:nonzero;stroke:none"
         id="path240" /><path
         d="m 22830.4,2176.6 h 5721 c 44.1,0 79.8,35.7 79.8,79.8 0,44.1 -35.7,79.8 -79.8,79.8 h -5721 c -44.1,0 -79.8,-35.7 -79.8,-79.8 0,-44.1 35.7,-79.8 79.8,-79.8"
         style="fill:#2b478b;fill-opacity:1;fill-rule:nonzero;stroke:none"
         id="path242" /><path
         d="m 22830.4,3084.1 h 5721 c 44.1,0 79.8,35.7 79.8,79.8 0,44.1 -35.7,79.8 -79.8,79.8 h -5721 c -44.1,0 -79.8,-35.7 -79.8,-79.8 0,-44.1 35.7,-79.8 79.8,-79.8"
         style="fill:#2b478b;fill-opacity:1;fill-rule:nonzero;stroke:none"
         id="path244" /><path
         d="m 28388,2710.1 -635.7,-17.9 635.7,-10.8 z"
         style="fill:#f4d2b8;fill-opacity:1;fill-rule:nonzero;stroke:none"
         id="path246" /><path
         d="M 28388,2955.7 26875.6,2937.8 28388,2927 Z"
         style="fill:#f4d2b8;fill-opacity:1;fill-rule:nonzero;stroke:none"
         id="path248" /><path
         d="m 26891.2,2941.4 c 0,0 64.8,-45.9 86.3,-121.3 3.8,-13.1 6.2,-27.3 6.7,-42.1 3.6,-100.2 0,-326.8 0,-326.8 l 191.3,113.3 190.9,-113.3 v 307.2 c 0,58.1 -16.4,114.5 -46.8,151.5 -14.7,18 -32.6,31.5 -52.9,31.5 h -375.5"
         style="fill:#699dee;fill-opacity:1;fill-rule:nonzero;stroke:none"
         id="path250" /><path
         d="m 26891.2,2941.4 c 0,0 64.8,-45.9 86.3,-121.3 l 383.4,-4.5 c 0,0 -15,108 -94.2,125.8 h -375.5"
         style="fill:#568cdb;fill-opacity:1;fill-rule:nonzero;stroke:none"
         id="path252" /><path
         d="m 23200.7,4609.8 h 4224.8 v 1567.8 h -4238.7 c -338.3,0 -612.6,-274.2 -612.6,-612.6 v -328.7 c 0,-346 280.5,-626.5 626.5,-626.5"
         style="fill:#fcecdb;fill-opacity:1;fill-rule:nonzero;stroke:none"
         id="path254" /><path
         d="m 22673.6,5569.3 v -337.4 c 1,-144.1 80.8,-269.1 198,-336 57.7,-32.8 124.4,-51.5 195.3,-51.5 h 4588 c 53.8,0 97.4,-43.6 97.4,-97.4 v -39.8 c 0,-53.8 -43.6,-97.4 -97.4,-97.4 H 19729 c -227.4,0 -428.4,113.1 -549.8,286.1 -76.5,109.1 -121.5,241.8 -121.5,385.2 v 266.2 c 0,98.3 22.5,191.3 62.6,274.1 102,210.9 317.8,356.2 567.7,356.2 h 7966.9 c 53.8,0 97.4,-43.5 97.4,-97.3 v -39.8 c 0,-53.7 -43.6,-97.3 -97.4,-97.3 h -4602 c -110,0 -209.6,-46.9 -279.1,-121.8 -61.6,-66.3 -99.6,-154.7 -100.2,-252.1"
         style="fill:#b5453c;fill-opacity:1;fill-rule:nonzero;stroke:none"
         id="path256" /><path
         d="m 27425.5,5393.7 -588.2,-26.3 588.2,-15.9 z"
         style="fill:#f4d2b8;fill-opacity:1;fill-rule:nonzero;stroke:none"
         id="path258" /><path
         d="m 27425.5,5754.5 -1399.3,-26.3 1399.3,-15.9 z"
         style="fill:#f4d2b8;fill-opacity:1;fill-rule:nonzero;stroke:none"
         id="path260" /><path
         d="m 26040.6,5733.4 c 0,0 92.4,-49.7 122.9,-131.4 5.5,-14.3 8.9,-29.6 9.6,-45.7 5.1,-108.6 0,-354.3 0,-354.3 l 272.7,122.8 271.9,-122.8 v 333 c 0,63 -23.3,124.2 -66.7,164.4 -21,19.4 -46.4,34 -75.3,34 h -535.1"
         style="fill:#f99746;fill-opacity:1;fill-rule:nonzero;stroke:none"
         id="path262" /><path
         d="m 26040.6,5733.4 c 0,0 92.4,-49.7 122.9,-131.4 l 546.4,-4.9 c 0,0 -21.4,117 -134.2,136.3 h -535.1"
         style="fill:#ed7d2b;fill-opacity:1;fill-rule:nonzero;stroke:none"
         id="path264" /><path
         d="m 23274.2,6758.9 c 241.8,-420.8 545.9,-583.3 545.9,-583.3 h 1265.4 c 0,0 -1995.8,904.4 -1811.3,583.3"
         style="fill:#233862;fill-opacity:1;fill-rule:nonzero;stroke:none"
         id="path266" /><path
         d="m 24246,3502.5 c 33,-37.8 37.2,-80 20.9,-125.1 l -0.4,-0.6 c -30.2,-83.4 -129.8,-176.6 -245.7,-269.6 -14.8,-11.9 -27.9,-22.8 -39.4,-32.8 -3,-2.7 -6,-5.3 -8.9,-8 -2.3,-2 -4.5,-4.2 -6.8,-6.1 -108,-99.6 -67.3,-122.4 -261.4,-324.4 -221.2,-230.2 -373.5,-234.3 -416.8,-213.4 -36.7,17.9 37.8,140 120.3,277.2 4,6.6 7.9,13.3 12,20 11,18.3 21.9,36.8 32.9,55.1 96.7,165.2 71.8,242.7 48.9,488.4 C 23483,3563 23190.9,4479 23190.9,4479 l 424,73.1 c 0,0 127.6,-729.5 268.3,-841.8 75.2,-59.9 159.4,-60.7 231.8,-105.1 5.1,-3 10.1,-6.2 15,-9.5 41.1,-27.2 82.9,-55.3 116,-93.2"
         style="fill:#ffb27d;fill-opacity:1;fill-rule:nonzero;stroke:none"
         id="path268" /><path
         d="m 24246,3502.5 c 33,-37.8 37.2,-80 20.9,-125.1 l -0.4,-0.6 c -36.9,-83.3 -134.1,-176 -246.1,-268.7 -14.6,-12.1 -27.5,-23.3 -39,-33.7 -3,-2.7 -6,-5.3 -8.9,-8 -2.3,-2 -4.5,-4.2 -6.8,-6.1 -108,-99.6 -67.3,-122.4 -261.4,-324.4 -221.2,-230.2 -373.5,-234.3 -416.8,-213.4 -36.7,17.9 37.8,140 120.3,277.2 43.1,15.8 243.1,97.1 394.4,290.6 133.2,170 222,388.4 312.8,514.9 5.1,-3 10.1,-6.2 15,-9.5 41.1,-27.2 82.9,-55.3 116,-93.2"
         style="fill:#233862;fill-opacity:1;fill-rule:nonzero;stroke:none"
         id="path270" /><path
         d="m 20827.3,3767.3 c -26.2,-130.9 -212.7,-109 -421.1,-58.1 -208.5,50.9 -158.9,-9.6 -455.5,23.2 -296.7,32.9 -386.5,143.5 -395.6,187.6 -8.1,39.1 138.5,52.9 295.7,71 19.8,2.2 39.6,4.7 59.5,7.1 177.5,22.3 307.5,136.8 468.7,230.9 152.7,89.1 380.6,452.1 380.6,452.1 l 406.8,-32.2 c 0,0 -213.5,-324.3 -296,-465.2 -48.6,-82.9 -46,-192.6 -40,-277.2 3.2,-46.1 6.2,-93.1 -3.1,-139.2"
         style="fill:#ffb27d;fill-opacity:1;fill-rule:nonzero;stroke:none"
         id="path272" /><path
         d="m 20406.2,3709.2 c -208.5,50.9 -158.9,-9.6 -455.5,23.2 -296.7,32.9 -386.5,143.5 -395.6,187.6 -8.1,39.1 138.5,52.9 295.7,71 l 1.5,-3 c 0,0 177.9,-126.1 424.8,-132 201.2,-4.9 414.4,52.7 553.3,50.5 3.2,-46.1 6.2,-93.1 -3.1,-139.2 -26.2,-130.9 -212.7,-109 -421.1,-58.1"
         style="fill:#233862;fill-opacity:1;fill-rule:nonzero;stroke:none"
         id="path274" /><path
         d="m 22386.2,6368.4 380.3,-1023.2 496.5,-1336.1 c 0,0 134.7,-13.1 263.7,24.1 118.8,34.3 255.1,124.1 255.1,124.1 0,0 -137.8,1434.6 -395,2258.1 -65.9,211.4 -139.8,382.4 -221.3,478.6 -398.6,471.2 -779.3,-525.6 -779.3,-525.6"
         style="fill:#233862;fill-opacity:1;fill-rule:nonzero;stroke:none"
         id="path276" /><path
         d="m 22772.9,7993.5 c 249.1,80.4 959.7,-22.8 1673.4,-162.5 l 149.5,246.5 1541.7,120.4 c 0,0 508.8,-1128.2 230.3,-1847.1 -41,-105.6 -122.3,-173.4 -261,-175.6 h -22.5 c 0,0 -917.6,0.5 -1215.6,0.5 -766.7,0 -1622.6,527 -1733.4,549.2 -181.2,36.2 -253.7,-326.2 -434.9,-706.8 -181.3,-380.6 -1703.6,-1685.5 -1703.6,-1685.5 0,0 -234,-2.3 -330.7,33.9 -103.9,39 -141.9,89.6 -141.9,89.6 0,0 1686.8,3356.2 2248.7,3537.4"
         style="fill:#2b478b;fill-opacity:1;fill-rule:nonzero;stroke:none"
         id="path278" /><path
         d="m 24604.9,10200.7 c 549,-302.3 1662.7,-929 1668.5,-924.9 0,0 409.4,-154.3 641.6,0 387.1,257 594.7,948.9 -113.2,1544.3 -353.1,296.9 -603.9,369.2 -642,843.3 -20.7,257.2 -372.3,1106.2 -956.5,1027.7 -48.8,-6.6 -349.4,-20.6 -546.9,-124.3 -503.2,-264.3 -874.6,-2249.1 -51.5,-2366.1"
         style="fill:#233862;fill-opacity:1;fill-rule:nonzero;stroke:none"
         id="path280" /><path
         d="m 25065,10458 c -2.4,-1.6 270.1,-94.6 452.4,-13.9 171.4,75.8 301.3,357.8 298.7,358 -77.9,3.6 -163.6,71.8 -229.5,519.2 l -33.2,-12 -558.4,-200.9 c 0,0 40.5,-179.1 66.6,-349.7 22.1,-143.3 33.9,-280.4 3.4,-300.7"
         style="fill:#ffb27d;fill-opacity:1;fill-rule:nonzero;stroke:none"
         id="path282" /><path
         d="m 24995,11108.4 c 0,0 40.5,-179.1 66.6,-349.7 320.8,57.7 446.6,377.2 491.8,550.6 l -558.4,-200.9"
         style="fill:#ed975d;fill-opacity:1;fill-rule:nonzero;stroke:none"
         id="path284" /><path
         d="m 24911.9,10930.6 c 0,0 763.9,102.5 692.7,577.3 -71.1,474.8 -20.5,807.7 -511.3,762.4 -490.7,-45.4 -558.1,-240.8 -572.9,-405 -14.8,-164.3 190.9,-949.1 391.5,-934.7"
         style="fill:#ffb27d;fill-opacity:1;fill-rule:nonzero;stroke:none"
         id="path286" /><path
         d="m 24548.2,12125.5 c 0,0 489.1,-421.4 821.7,-455.4 332.7,-34 458.6,72.8 458.6,72.8 0,0 -196.1,162.8 -314.1,425.5 -34.7,77.5 -108.2,130.6 -192.8,137.9 -237.5,20.5 -687.8,29.9 -773.4,-180.8"
         style="fill:#233862;fill-opacity:1;fill-rule:nonzero;stroke:none"
         id="path288" /><path
         d="m 24853.9,12163.3 c 0,0 -163.6,-158.2 -215.1,-275.6 -49.7,-113.2 -64.6,-384 -25,-491.5 0,0 -254.9,495.6 -110.6,736.4 153,255.4 350.7,30.7 350.7,30.7"
         style="fill:#233862;fill-opacity:1;fill-rule:nonzero;stroke:none"
         id="path290" /><path
         d="m 24421.7,9332.6 c 23.1,-1546.4 6.4,-1223.3 175.5,-1370 40.8,-35.3 155.4,-56.4 306.2,-66.3 474.2,-31.5 1307.7,46.6 1339.4,134.2 109.4,303.3 32.2,397.5 123.5,861.7 9.5,49.3 21.2,102.8 35,161 76.1,318.8 150.2,427.3 -119.7,939.5 -244.8,464 -499.1,840.6 -522,827 -645.8,-383.4 -697.9,-61.1 -697.9,-61.1 0,0 -651.3,-671.7 -640,-1426"
         style="fill:#ffffff;fill-opacity:1;fill-rule:nonzero;stroke:none"
         id="path292" /><path
         d="M 22766.5,5345.2 23263,4009.1 c 0,0 134.7,-13.1 263.7,24.1 118.8,34.3 255.1,124.1 255.1,124.1 0,0 -137.8,1434.6 -395,2258.1 l -620.3,-1070.2"
         style="fill:#2b478b;fill-opacity:1;fill-rule:nonzero;stroke:none"
         id="path294" /><path
         d="m 25061.6,10758.7 c 0,0 -664.5,-112.7 -742.5,-398.8 -78.1,-286.1 -537.3,-1968.2 -537.3,-1968.2 0,0 337.8,-60.7 493.9,95.4 156.1,156 543.1,1447.9 543.1,1447.9 l 242.8,823.7"
         style="fill:#ffffff;fill-opacity:1;fill-rule:nonzero;stroke:none"
         id="path296" /><path
         d="m 24903.4,7896.3 c 474.2,-31.5 1307.7,46.6 1339.4,134.2 109.4,303.3 32.2,397.5 123.5,861.7 l -228.8,644 c 0,0 37.9,-717.2 -173.7,-905.8 -211.2,-188.6 -865.9,-364.1 -968.7,-521.7 -49.6,-75.7 -82.2,-151.5 -91.7,-212.4"
         style="fill:#ebf3ff;fill-opacity:1;fill-rule:nonzero;stroke:none"
         id="path298" /><path
         d="m 25446.7,8197.9 c 0,0 -467.8,104.1 -543.3,62.6 -75.5,-41.5 -260,-192.7 -283.1,-245.3 -23.1,-52.6 168.1,40 230.2,56.6 40.3,10.8 146.3,-26 198.8,-43.5 220.7,-73.6 356,-35.7 356,-35.7 l 41.4,205.3"
         style="fill:#ffb27d;fill-opacity:1;fill-rule:nonzero;stroke:none"
         id="path300" /><path
         d="m 25760,10820.1 c 0,0 628.1,-38.7 845.6,-342 306.1,-426.9 913.3,-2246.4 565.3,-2489.1 -391.9,-273.3 -1783.7,-71.5 -1783.7,-71.5 0,0 -46.3,216.5 18.1,321.2 64.5,104.7 1111.7,273.9 1160,322.2 48.3,48.4 -604.1,942.5 -604.1,1087.5 0,145 -201.2,1171.7 -201.2,1171.7"
         style="fill:#ffffff;fill-opacity:1;fill-rule:nonzero;stroke:none"
         id="path302" /><path
         d="m 24880.7,8130.3 c 0,0 -98,-126.4 -130.1,-141.5 -32.2,-15.1 -52.9,-11.3 -52.9,-11.3 l 66,118.9 117,33.9"
         style="fill:#ffb27d;fill-opacity:1;fill-rule:nonzero;stroke:none"
         id="path304" /><path
         d="m 24903.4,8260.5 -285,-138.4 c 0,0 12.1,-19.8 47.2,-18.2 35.1,1.6 123.6,34 123.6,34 l 114.2,122.6"
         style="fill:#ffb27d;fill-opacity:1;fill-rule:nonzero;stroke:none"
         id="path306" /><path
         d="m 24750.6,7795.1 h -2254.3 l -678.2,1686.4 H 24069 l 681.6,-1686.4"
         style="fill:#f99746;fill-opacity:1;fill-rule:nonzero;stroke:none"
         id="path308" /><path
         d="m 22469.8,7860.8 h 2976.9 v -65.7 h -2950.4 l -26.5,65.7"
         style="fill:#ed7d2b;fill-opacity:1;fill-rule:nonzero;stroke:none"
         id="path310" /><path
         d="m 23065.3,8638.3 c -17,59.3 17.3,107.3 76.6,107.3 59.3,0 121.1,-48 138.1,-107.3 17,-59.3 -17.3,-107.3 -76.6,-107.3 -59.2,0 -121.1,48 -138.1,107.3"
         style="fill:#ffffff;fill-opacity:1;fill-rule:nonzero;stroke:none"
         id="path312" /><path
         d="m 4264.72,7132.8 -48.01,-33.2 c -51.25,-35.6 -121.85,-22.8 -157.37,28.5 l -279.22,402.8 c -35.52,51.3 -22.73,121.9 28.53,157.4 l 68.76,47.7 c 10.05,6.9 23.84,4.4 30.79,-5.6 6.97,-10.1 4.47,-23.8 -5.58,-30.8 l -68.76,-47.7 c -31.19,-21.6 -38.98,-64.6 -17.36,-95.8 l 279.21,-402.8 c 21.62,-31.2 64.59,-39 95.78,-17.4 l 48.02,33.3 c 31.19,21.6 38.98,64.6 17.36,95.8 l -185.35,267.4 c -6.96,10.1 -4.46,23.9 5.58,30.8 10.05,7 23.84,4.5 30.8,-5.6 l 185.35,-267.4 c 35.52,-51.2 22.73,-121.8 -28.53,-157.4"
         style="fill:#afcdfb;fill-opacity:1;fill-rule:nonzero;stroke:none"
         id="path314" /><path
         d="m 4570.8,6735.6 -86.07,-59.7 c -79.91,-55.4 -193.2,-30.8 -252.54,54.8 l -419.78,605.7 c -6.96,10 -4.46,23.8 5.59,30.8 10.04,6.9 23.83,4.4 30.79,-5.6 L 4268.57,6756 c 45.44,-65.6 131.1,-85.2 190.95,-43.7 l 86.07,59.6 c 59.85,41.5 71.57,128.6 26.13,194.2 l -478.15,689.8 c -45.44,65.6 -131.09,85.2 -190.95,43.7 -10.04,-7 -23.83,-4.5 -30.79,5.6 -6.97,10 -4.47,23.8 5.58,30.8 79.91,55.4 193.2,30.8 252.54,-54.9 l 478.15,-689.8 c 59.34,-85.6 42.61,-200.4 -37.3,-255.7"
         style="fill:#afcdfb;fill-opacity:1;fill-rule:nonzero;stroke:none"
         id="path316" /><path
         d="m 5148.27,3572.3 10.36,-85.3 c 11.05,-91.1 -54.05,-174.2 -145.13,-185.2 l -715.84,-86.9 c -91.08,-11 -174.17,54.1 -185.22,145.1 l -14.83,122.2 c -2.17,17.9 10.55,34.1 28.4,36.3 17.85,2.1 34.08,-10.6 36.25,-28.4 l 14.82,-122.2 c 6.73,-55.5 57.3,-95.1 112.73,-88.4 l 715.84,86.9 c 55.44,6.7 95.06,57.3 88.33,112.7 l -10.35,85.4 c -6.73,55.4 -57.3,95 -112.73,88.3 l -475.2,-57.7 c -17.85,-2.1 -34.08,10.6 -36.24,28.4 -2.17,17.9 10.55,34.1 28.4,36.3 l 475.2,57.6 c 91.07,11.1 174.16,-54 185.21,-145.1"
         style="fill:#afcdfb;fill-opacity:1;fill-rule:nonzero;stroke:none"
         id="path318" /><path
         d="m 5875.31,3698 18.56,-153 c 17.23,-142 -92.52,-272.5 -244.66,-291 L 4573,3123.4 c -17.85,-2.2 -34.08,10.6 -36.25,28.4 -2.17,17.9 10.55,34.1 28.4,36.3 l 1076.21,130.6 c 116.5,14.1 200.77,112.1 187.87,218.5 l -18.57,152.9 c -12.9,106.4 -118.18,181.4 -234.67,167.3 L 4350.12,3708.6 c -116.5,-14.2 -200.77,-112.2 -187.86,-218.5 2.16,-17.9 -10.56,-34.1 -28.4,-36.3 -17.85,-2.1 -34.08,10.6 -36.25,28.4 -17.23,142 92.52,272.6 244.66,291 L 5568.14,3922 c 152.14,18.5 289.94,-82 307.17,-224"
         style="fill:#afcdfb;fill-opacity:1;fill-rule:nonzero;stroke:none"
         id="path320" /><path
         d="m 17346.3,13702.1 c 0,54.8 44.4,99.2 99.2,99.2 54.8,0 99.2,-44.4 99.2,-99.2 0,-54.8 -44.4,-99.2 -99.2,-99.2 -54.8,0 -99.2,44.4 -99.2,99.2"
         style="fill:#f99746;fill-opacity:1;fill-rule:nonzero;stroke:none"
         id="path322" /><path
         d="M 30848.6,2107.2 H 1912.21 c -18.07,0 -32.85,14.8 -32.85,32.8 v 11.2 c 0,18.1 14.78,32.9 32.86,32.9 H 30848.6 c 18.1,0 32.9,-14.8 32.9,-32.9 V 2140 c 0,-18 -14.8,-32.8 -32.9,-32.8"
         style="fill:#2e3552;fill-opacity:1;fill-rule:nonzero;stroke:none"
         id="path324" /></g></g></svg>
