<?xml version="1.0" encoding="UTF-8" standalone="no"?>
<!-- Created with Inkscape (http://www.inkscape.org/) -->

<svg
   version="1.1"
   id="svg2"
   xml:space="preserve"
   width="4266.6665"
   height="2666.6667"
   viewBox="0 0 4266.6665 2666.6667"
   sodipodi:docname="6517.eps"
   xmlns:inkscape="http://www.inkscape.org/namespaces/inkscape"
   xmlns:sodipodi="http://sodipodi.sourceforge.net/DTD/sodipodi-0.dtd"
   xmlns="http://www.w3.org/2000/svg"
   xmlns:svg="http://www.w3.org/2000/svg"><defs
     id="defs6" /><sodipodi:namedview
     id="namedview4"
     pagecolor="#ffffff"
     bordercolor="#666666"
     borderopacity="1.0"
     inkscape:pageshadow="2"
     inkscape:pageopacity="0.0"
     inkscape:pagecheckerboard="0" /><g
     id="g8"
     inkscape:groupmode="layer"
     inkscape:label="ink_ext_XXXXXX"
     transform="matrix(1.3333333,0,0,-1.3333333,0,2666.6667)"><g
       id="g10"
       transform="scale(0.1)"><path
         d="M 0,0 H 32000 V 20000 H 0 Z"
         style="fill:#ffffff;fill-opacity:1;fill-rule:nonzero;stroke:none"
         id="path12" /><path
         d="m 3705.7,2130.4 c -667.54,1780.7 -1181.57,3853.6 -1108.46,5751 62.46,1467 442.07,3040 2363.77,4846.9 2059.88,1927.1 4284.45,1788.1 6315.79,1649 1691.4,-115.8 3248.8,-231.6 4465.6,845.5 2618.5,2315.6 7518.2,2350 9709.8,213.4 1113,-1112.3 1327.5,-2485 927.1,-3972.4 -123.7,-455.6 -287.7,-865.1 -486.5,-1287.5 -599,-1253 -105.6,-2003.4 649.5,-2689.6 657.9,-599.5 1379.8,-1054.1 1925.4,-1808.4 767.8,-1086.6 571.1,-2350.8 -32.2,-3554.8 l -24729.8,6.9"
         style="fill:#ebf3fa;fill-opacity:1;fill-rule:nonzero;stroke:none"
         id="path14" /><path
         d="m 15792.5,3139.4 h 1558.4 V 8868.8 H 15792.5 V 3139.4"
         style="fill:#d9e7fa;fill-opacity:1;fill-rule:nonzero;stroke:none"
         id="path16" /><path
         d="m 15442.5,3139.4 h 1558.4 V 8868.8 H 15442.5 V 3139.4"
         style="fill:#dce9fa;fill-opacity:1;fill-rule:nonzero;stroke:none"
         id="path18" /><path
         d="m 17000.5,8090.5 h -1558 v 413.6 h 1558 v -413.6"
         style="fill:#d9e7fa;fill-opacity:1;fill-rule:nonzero;stroke:none"
         id="path20" /><path
         d="m 17000.5,7193.6 h -1558 v 413.6 h 1558 v -413.6"
         style="fill:#d9e7fa;fill-opacity:1;fill-rule:nonzero;stroke:none"
         id="path22" /><path
         d="m 17000.5,6296.7 h -1558 v 413.5 h 1558 v -413.5"
         style="fill:#d9e7fa;fill-opacity:1;fill-rule:nonzero;stroke:none"
         id="path24" /><path
         d="m 17000.5,5399.8 h -1558 v 413.5 h 1558 v -413.5"
         style="fill:#d9e7fa;fill-opacity:1;fill-rule:nonzero;stroke:none"
         id="path26" /><path
         d="m 17000.5,4502.8 h -1558 v 413.6 h 1558 v -413.6"
         style="fill:#d9e7fa;fill-opacity:1;fill-rule:nonzero;stroke:none"
         id="path28" /><path
         d="m 17000.5,3605.9 h -1558 v 413.5 h 1558 v -413.5"
         style="fill:#d9e7fa;fill-opacity:1;fill-rule:nonzero;stroke:none"
         id="path30" /><path
         d="m 13301.2,3139.4 h 1558.4 v 5072 h -1558.4 v -5072"
         style="fill:#d9e7fa;fill-opacity:1;fill-rule:nonzero;stroke:none"
         id="path32" /><path
         d="m 12951.2,3139.4 h 1558.4 v 5072 h -1558.4 v -5072"
         style="fill:#dce9fa;fill-opacity:1;fill-rule:nonzero;stroke:none"
         id="path34" /><path
         d="m 14509.2,7390 h -1558 v 355 h 1558 v -355"
         style="fill:#d9e7fa;fill-opacity:1;fill-rule:nonzero;stroke:none"
         id="path36" /><path
         d="m 14509.2,6619.9 h -1558 V 6975 h 1558 v -355.1"
         style="fill:#d9e7fa;fill-opacity:1;fill-rule:nonzero;stroke:none"
         id="path38" /><path
         d="m 14509.2,5849.9 h -1558 V 6205 h 1558 v -355.1"
         style="fill:#d9e7fa;fill-opacity:1;fill-rule:nonzero;stroke:none"
         id="path40" /><path
         d="m 14509.2,5079.9 h -1558 v 355 h 1558 v -355"
         style="fill:#d9e7fa;fill-opacity:1;fill-rule:nonzero;stroke:none"
         id="path42" /><path
         d="m 14509.2,4309.9 h -1558 v 355 h 1558 v -355"
         style="fill:#d9e7fa;fill-opacity:1;fill-rule:nonzero;stroke:none"
         id="path44" /><path
         d="m 14509.2,3539.9 h -1558 v 355 h 1558 v -355"
         style="fill:#d9e7fa;fill-opacity:1;fill-rule:nonzero;stroke:none"
         id="path46" /><path
         d="m 18194.4,2460.3 h -652.6 v 898.6 h 652.6 v -898.6"
         style="fill:#dceaf9;fill-opacity:1;fill-rule:nonzero;stroke:none"
         id="path48" /><path
         d="m 28435.5,2123.5 c 603.3,1204 800,2468.2 32.2,3554.8 -545.4,753.9 -1266.8,1208.4 -1924.5,1807.5 H 25114.4 V 9041 h -986.9 V 8031.4 h -225.1 v 1205.3 h -986.9 V 6977 H 21667.3 V 5659.3 H 21201 v -331.9 h -1071.3 v 571.7 h -615 v 1553.2 h -759.9 V 4585 h -759.7 V 2126.4 l 10440.4,-2.9"
         style="fill:#dce9fa;fill-opacity:1;fill-rule:nonzero;stroke:none"
         id="path50" /><path
         d="M 23902.4,8853.9 H 22915 v 230.3 h 987.4 v -230.3"
         style="fill:#d9e7fa;fill-opacity:1;fill-rule:nonzero;stroke:none"
         id="path52" /><path
         d="M 23902.4,8421.4 H 22915 v 230.2 h 987.4 v -230.2"
         style="fill:#d9e7fa;fill-opacity:1;fill-rule:nonzero;stroke:none"
         id="path54" /><path
         d="M 23902.4,8032.2 H 22915 v 230.3 h 987.4 v -230.3"
         style="fill:#d9e7fa;fill-opacity:1;fill-rule:nonzero;stroke:none"
         id="path56" /><path
         d="m 25114.2,8032.2 h -987.5 v 230.3 h 987.5 v -230.3"
         style="fill:#d9e7fa;fill-opacity:1;fill-rule:nonzero;stroke:none"
         id="path58" /><path
         d="m 25114.2,8421.4 h -987.5 v 230.2 h 987.5 v -230.2"
         style="fill:#d9e7fa;fill-opacity:1;fill-rule:nonzero;stroke:none"
         id="path60" /><path
         d="m 25114.2,8809.9 h -987.5 v 230.3 h 987.5 v -230.3"
         style="fill:#d9e7fa;fill-opacity:1;fill-rule:nonzero;stroke:none"
         id="path62" /><path
         d="M 25114.4,7654.9 H 22915 v 230.3 h 2199.4 v -230.3"
         style="fill:#d9e7fa;fill-opacity:1;fill-rule:nonzero;stroke:none"
         id="path64" /><path
         d="M 25114.4,7277.6 H 22915 v 230.3 h 2199.4 v -230.3"
         style="fill:#d9e7fa;fill-opacity:1;fill-rule:nonzero;stroke:none"
         id="path66" /><path
         d="m 19521.6,7096.7 h -766.4 v 355.4 h 766.4 v -355.4"
         style="fill:#d9e7fa;fill-opacity:1;fill-rule:nonzero;stroke:none"
         id="path68" /><path
         d="m 19521.6,6568.2 h -766.4 v 355.4 h 766.4 v -355.4"
         style="fill:#d9e7fa;fill-opacity:1;fill-rule:nonzero;stroke:none"
         id="path70" /><path
         d="m 19521.6,6039.6 h -766.4 V 6395 h 766.4 v -355.4"
         style="fill:#d9e7fa;fill-opacity:1;fill-rule:nonzero;stroke:none"
         id="path72" /><path
         d="m 19521.6,5485.6 h -766.4 V 5841 h 766.4 v -355.4"
         style="fill:#d9e7fa;fill-opacity:1;fill-rule:nonzero;stroke:none"
         id="path74" /><path
         d="m 19521.6,4948.7 h -766.4 v 355.4 h 766.4 v -355.4"
         style="fill:#d9e7fa;fill-opacity:1;fill-rule:nonzero;stroke:none"
         id="path76" /><path
         d="m 19521.6,4411.9 h -766.4 v 355.4 h 766.4 v -355.4"
         style="fill:#d9e7fa;fill-opacity:1;fill-rule:nonzero;stroke:none"
         id="path78" /><path
         d="m 19521.6,3850.2 h -766.4 v 355.4 h 766.4 v -355.4"
         style="fill:#d9e7fa;fill-opacity:1;fill-rule:nonzero;stroke:none"
         id="path80" /><path
         d="M 25114.4,6993 H 22915 v 146.1 h 2199.4 V 6993"
         style="fill:#d9e7fa;fill-opacity:1;fill-rule:nonzero;stroke:none"
         id="path82" /><path
         d="M 19511,7452.1 V 5899 h 282.6 V 7452.1 H 19511"
         style="fill:#d9e7fa;fill-opacity:1;fill-rule:nonzero;stroke:none"
         id="path84" /><path
         d="m 20129.7,5899 h 568.4 v -571.6 h -568.4 V 5899"
         style="fill:#d9e7fa;fill-opacity:1;fill-rule:nonzero;stroke:none"
         id="path86" /><path
         d="m 25114.2,9040.2 v -230.3 l 0.1,-924.7 0.1,-230.2 v -169.2 h 195.9 v 1536 c -8.8,6.2 -17.6,12.3 -26.3,18.4 h -169.8"
         style="fill:#d9e7fa;fill-opacity:1;fill-rule:nonzero;stroke:none"
         id="path88" /><path
         d="m 23902.4,9236.7 h 120.5 V 8032.2 h -120.5 v 1204.5"
         style="fill:#d9e7fa;fill-opacity:1;fill-rule:nonzero;stroke:none"
         id="path90" /><path
         d="m 22038.6,6527.6 h -167.3 v 222.7 h 167.3 v -222.7"
         style="fill:#d9e7fa;fill-opacity:1;fill-rule:nonzero;stroke:none"
         id="path92" /><path
         d="m 22351.4,6527.6 h -167.3 v 222.7 h 167.3 v -222.7"
         style="fill:#d9e7fa;fill-opacity:1;fill-rule:nonzero;stroke:none"
         id="path94" /><path
         d="M 22657.3,6527.6 H 22490 v 222.7 h 167.3 v -222.7"
         style="fill:#d9e7fa;fill-opacity:1;fill-rule:nonzero;stroke:none"
         id="path96" /><path
         d="M 22947.3,6527.6 H 22780 v 222.7 h 167.3 v -222.7"
         style="fill:#d9e7fa;fill-opacity:1;fill-rule:nonzero;stroke:none"
         id="path98" /><path
         d="m 23242.9,6527.6 h -167.3 v 222.7 h 167.3 v -222.7"
         style="fill:#d9e7fa;fill-opacity:1;fill-rule:nonzero;stroke:none"
         id="path100" /><path
         d="m 23541.8,6527.6 h -167.3 v 222.7 h 167.3 v -222.7"
         style="fill:#d9e7fa;fill-opacity:1;fill-rule:nonzero;stroke:none"
         id="path102" /><path
         d="m 23854.7,6527.6 h -167.3 v 222.7 h 167.3 v -222.7"
         style="fill:#d9e7fa;fill-opacity:1;fill-rule:nonzero;stroke:none"
         id="path104" /><path
         d="m 24160.6,6527.6 h -167.3 v 222.7 h 167.3 v -222.7"
         style="fill:#d9e7fa;fill-opacity:1;fill-rule:nonzero;stroke:none"
         id="path106" /><path
         d="m 24450.6,6527.6 h -167.3 v 222.7 h 167.3 v -222.7"
         style="fill:#d9e7fa;fill-opacity:1;fill-rule:nonzero;stroke:none"
         id="path108" /><path
         d="m 24746.2,6527.6 h -167.3 v 222.7 h 167.3 v -222.7"
         style="fill:#d9e7fa;fill-opacity:1;fill-rule:nonzero;stroke:none"
         id="path110" /><path
         d="m 25054.2,6527.6 h -167.3 v 222.7 h 167.3 v -222.7"
         style="fill:#d9e7fa;fill-opacity:1;fill-rule:nonzero;stroke:none"
         id="path112" /><path
         d="m 25367.1,6527.6 h -167.3 v 222.7 h 167.3 v -222.7"
         style="fill:#d9e7fa;fill-opacity:1;fill-rule:nonzero;stroke:none"
         id="path114" /><path
         d="m 25672.9,6527.6 h -167.3 v 222.7 h 167.3 v -222.7"
         style="fill:#d9e7fa;fill-opacity:1;fill-rule:nonzero;stroke:none"
         id="path116" /><path
         d="m 25962.9,6527.6 h -167.3 v 222.7 h 167.3 v -222.7"
         style="fill:#d9e7fa;fill-opacity:1;fill-rule:nonzero;stroke:none"
         id="path118" /><path
         d="m 26258.5,6527.6 h -167.3 v 222.7 h 167.3 v -222.7"
         style="fill:#d9e7fa;fill-opacity:1;fill-rule:nonzero;stroke:none"
         id="path120" /><path
         d="m 26557.5,6527.6 h -167.3 v 222.7 h 167.3 v -222.7"
         style="fill:#d9e7fa;fill-opacity:1;fill-rule:nonzero;stroke:none"
         id="path122" /><path
         d="m 22038.6,6134.6 h -167.3 v 222.7 h 167.3 v -222.7"
         style="fill:#d9e7fa;fill-opacity:1;fill-rule:nonzero;stroke:none"
         id="path124" /><path
         d="m 22351.4,6134.6 h -167.3 v 222.7 h 167.3 v -222.7"
         style="fill:#d9e7fa;fill-opacity:1;fill-rule:nonzero;stroke:none"
         id="path126" /><path
         d="M 22657.3,6134.6 H 22490 v 222.7 h 167.3 v -222.7"
         style="fill:#d9e7fa;fill-opacity:1;fill-rule:nonzero;stroke:none"
         id="path128" /><path
         d="M 22947.3,6134.6 H 22780 v 222.7 h 167.3 v -222.7"
         style="fill:#d9e7fa;fill-opacity:1;fill-rule:nonzero;stroke:none"
         id="path130" /><path
         d="m 23242.9,6134.6 h -167.3 v 222.7 h 167.3 v -222.7"
         style="fill:#d9e7fa;fill-opacity:1;fill-rule:nonzero;stroke:none"
         id="path132" /><path
         d="m 23541.8,6134.6 h -167.3 v 222.7 h 167.3 v -222.7"
         style="fill:#d9e7fa;fill-opacity:1;fill-rule:nonzero;stroke:none"
         id="path134" /><path
         d="m 23854.7,6134.6 h -167.3 v 222.7 h 167.3 v -222.7"
         style="fill:#d9e7fa;fill-opacity:1;fill-rule:nonzero;stroke:none"
         id="path136" /><path
         d="m 24160.6,6134.6 h -167.3 v 222.7 h 167.3 v -222.7"
         style="fill:#d9e7fa;fill-opacity:1;fill-rule:nonzero;stroke:none"
         id="path138" /><path
         d="m 24450.6,6134.6 h -167.3 v 222.7 h 167.3 v -222.7"
         style="fill:#d9e7fa;fill-opacity:1;fill-rule:nonzero;stroke:none"
         id="path140" /><path
         d="m 24746.2,6134.6 h -167.3 v 222.7 h 167.3 v -222.7"
         style="fill:#d9e7fa;fill-opacity:1;fill-rule:nonzero;stroke:none"
         id="path142" /><path
         d="m 25054.2,6134.6 h -167.3 v 222.7 h 167.3 v -222.7"
         style="fill:#d9e7fa;fill-opacity:1;fill-rule:nonzero;stroke:none"
         id="path144" /><path
         d="m 25367.1,6134.6 h -167.3 v 222.7 h 167.3 v -222.7"
         style="fill:#d9e7fa;fill-opacity:1;fill-rule:nonzero;stroke:none"
         id="path146" /><path
         d="m 25672.9,6134.6 h -167.3 v 222.7 h 167.3 v -222.7"
         style="fill:#d9e7fa;fill-opacity:1;fill-rule:nonzero;stroke:none"
         id="path148" /><path
         d="m 25962.9,6134.6 h -167.3 v 222.7 h 167.3 v -222.7"
         style="fill:#d9e7fa;fill-opacity:1;fill-rule:nonzero;stroke:none"
         id="path150" /><path
         d="m 26258.5,6134.6 h -167.3 v 222.7 h 167.3 v -222.7"
         style="fill:#d9e7fa;fill-opacity:1;fill-rule:nonzero;stroke:none"
         id="path152" /><path
         d="m 26557.5,6134.6 h -167.3 v 222.7 h 167.3 v -222.7"
         style="fill:#d9e7fa;fill-opacity:1;fill-rule:nonzero;stroke:none"
         id="path154" /><path
         d="m 22038.6,5747.7 h -167.3 v 222.6 h 167.3 v -222.6"
         style="fill:#d9e7fa;fill-opacity:1;fill-rule:nonzero;stroke:none"
         id="path156" /><path
         d="m 22351.4,5747.7 h -167.3 v 222.6 h 167.3 v -222.6"
         style="fill:#d9e7fa;fill-opacity:1;fill-rule:nonzero;stroke:none"
         id="path158" /><path
         d="M 22657.3,5747.7 H 22490 v 222.6 h 167.3 v -222.6"
         style="fill:#d9e7fa;fill-opacity:1;fill-rule:nonzero;stroke:none"
         id="path160" /><path
         d="M 22947.3,5747.7 H 22780 v 222.6 h 167.3 v -222.6"
         style="fill:#d9e7fa;fill-opacity:1;fill-rule:nonzero;stroke:none"
         id="path162" /><path
         d="m 23242.9,5747.7 h -167.3 v 222.6 h 167.3 v -222.6"
         style="fill:#d9e7fa;fill-opacity:1;fill-rule:nonzero;stroke:none"
         id="path164" /><path
         d="m 23541.8,5747.7 h -167.3 v 222.6 h 167.3 v -222.6"
         style="fill:#d9e7fa;fill-opacity:1;fill-rule:nonzero;stroke:none"
         id="path166" /><path
         d="m 23854.7,5747.7 h -167.3 v 222.6 h 167.3 v -222.6"
         style="fill:#d9e7fa;fill-opacity:1;fill-rule:nonzero;stroke:none"
         id="path168" /><path
         d="m 24160.6,5747.7 h -167.3 v 222.6 h 167.3 v -222.6"
         style="fill:#d9e7fa;fill-opacity:1;fill-rule:nonzero;stroke:none"
         id="path170" /><path
         d="m 24450.6,5747.7 h -167.3 v 222.6 h 167.3 v -222.6"
         style="fill:#d9e7fa;fill-opacity:1;fill-rule:nonzero;stroke:none"
         id="path172" /><path
         d="m 24746.2,5747.7 h -167.3 v 222.6 h 167.3 v -222.6"
         style="fill:#d9e7fa;fill-opacity:1;fill-rule:nonzero;stroke:none"
         id="path174" /><path
         d="m 25054.2,5747.7 h -167.3 v 222.6 h 167.3 v -222.6"
         style="fill:#d9e7fa;fill-opacity:1;fill-rule:nonzero;stroke:none"
         id="path176" /><path
         d="m 25367.1,5747.7 h -167.3 v 222.6 h 167.3 v -222.6"
         style="fill:#d9e7fa;fill-opacity:1;fill-rule:nonzero;stroke:none"
         id="path178" /><path
         d="m 25672.9,5747.7 h -167.3 v 222.6 h 167.3 v -222.6"
         style="fill:#d9e7fa;fill-opacity:1;fill-rule:nonzero;stroke:none"
         id="path180" /><path
         d="m 25962.9,5747.7 h -167.3 v 222.6 h 167.3 v -222.6"
         style="fill:#d9e7fa;fill-opacity:1;fill-rule:nonzero;stroke:none"
         id="path182" /><path
         d="m 26258.5,5747.7 h -167.3 v 222.6 h 167.3 v -222.6"
         style="fill:#d9e7fa;fill-opacity:1;fill-rule:nonzero;stroke:none"
         id="path184" /><path
         d="m 26557.5,5747.7 h -167.3 v 222.6 h 167.3 v -222.6"
         style="fill:#d9e7fa;fill-opacity:1;fill-rule:nonzero;stroke:none"
         id="path186" /><path
         d="m 22038.6,5336.5 h -167.3 v 222.7 h 167.3 v -222.7"
         style="fill:#d9e7fa;fill-opacity:1;fill-rule:nonzero;stroke:none"
         id="path188" /><path
         d="m 22351.4,5336.5 h -167.3 v 222.7 h 167.3 v -222.7"
         style="fill:#d9e7fa;fill-opacity:1;fill-rule:nonzero;stroke:none"
         id="path190" /><path
         d="M 22657.3,5336.5 H 22490 v 222.7 h 167.3 v -222.7"
         style="fill:#d9e7fa;fill-opacity:1;fill-rule:nonzero;stroke:none"
         id="path192" /><path
         d="M 22947.3,5336.5 H 22780 v 222.7 h 167.3 v -222.7"
         style="fill:#d9e7fa;fill-opacity:1;fill-rule:nonzero;stroke:none"
         id="path194" /><path
         d="m 23242.9,5336.5 h -167.3 v 222.7 h 167.3 v -222.7"
         style="fill:#d9e7fa;fill-opacity:1;fill-rule:nonzero;stroke:none"
         id="path196" /><path
         d="m 23541.8,5336.5 h -167.3 v 222.7 h 167.3 v -222.7"
         style="fill:#d9e7fa;fill-opacity:1;fill-rule:nonzero;stroke:none"
         id="path198" /><path
         d="m 23854.7,5336.5 h -167.3 v 222.7 h 167.3 v -222.7"
         style="fill:#d9e7fa;fill-opacity:1;fill-rule:nonzero;stroke:none"
         id="path200" /><path
         d="m 24160.6,5336.5 h -167.3 v 222.7 h 167.3 v -222.7"
         style="fill:#d9e7fa;fill-opacity:1;fill-rule:nonzero;stroke:none"
         id="path202" /><path
         d="m 24450.6,5336.5 h -167.3 v 222.7 h 167.3 v -222.7"
         style="fill:#d9e7fa;fill-opacity:1;fill-rule:nonzero;stroke:none"
         id="path204" /><path
         d="m 24746.2,5336.5 h -167.3 v 222.7 h 167.3 v -222.7"
         style="fill:#d9e7fa;fill-opacity:1;fill-rule:nonzero;stroke:none"
         id="path206" /><path
         d="m 25054.2,5336.5 h -167.3 v 222.7 h 167.3 v -222.7"
         style="fill:#d9e7fa;fill-opacity:1;fill-rule:nonzero;stroke:none"
         id="path208" /><path
         d="m 25367.1,5336.5 h -167.3 v 222.7 h 167.3 v -222.7"
         style="fill:#d9e7fa;fill-opacity:1;fill-rule:nonzero;stroke:none"
         id="path210" /><path
         d="m 25672.9,5336.5 h -167.3 v 222.7 h 167.3 v -222.7"
         style="fill:#d9e7fa;fill-opacity:1;fill-rule:nonzero;stroke:none"
         id="path212" /><path
         d="m 25962.9,5336.5 h -167.3 v 222.7 h 167.3 v -222.7"
         style="fill:#d9e7fa;fill-opacity:1;fill-rule:nonzero;stroke:none"
         id="path214" /><path
         d="m 26258.5,5336.5 h -167.3 v 222.7 h 167.3 v -222.7"
         style="fill:#d9e7fa;fill-opacity:1;fill-rule:nonzero;stroke:none"
         id="path216" /><path
         d="m 26557.5,5336.5 h -167.3 v 222.7 h 167.3 v -222.7"
         style="fill:#d9e7fa;fill-opacity:1;fill-rule:nonzero;stroke:none"
         id="path218" /><path
         d="m 22038.6,4943.5 h -167.3 v 222.7 h 167.3 v -222.7"
         style="fill:#d9e7fa;fill-opacity:1;fill-rule:nonzero;stroke:none"
         id="path220" /><path
         d="m 22351.4,4943.5 h -167.3 v 222.7 h 167.3 v -222.7"
         style="fill:#d9e7fa;fill-opacity:1;fill-rule:nonzero;stroke:none"
         id="path222" /><path
         d="M 22657.3,4943.5 H 22490 v 222.7 h 167.3 v -222.7"
         style="fill:#d9e7fa;fill-opacity:1;fill-rule:nonzero;stroke:none"
         id="path224" /><path
         d="M 22947.3,4943.5 H 22780 v 222.7 h 167.3 v -222.7"
         style="fill:#d9e7fa;fill-opacity:1;fill-rule:nonzero;stroke:none"
         id="path226" /><path
         d="m 23242.9,4943.5 h -167.3 v 222.7 h 167.3 v -222.7"
         style="fill:#d9e7fa;fill-opacity:1;fill-rule:nonzero;stroke:none"
         id="path228" /><path
         d="m 23541.8,4943.5 h -167.3 v 222.7 h 167.3 v -222.7"
         style="fill:#d9e7fa;fill-opacity:1;fill-rule:nonzero;stroke:none"
         id="path230" /><path
         d="m 23854.7,4943.5 h -167.3 v 222.7 h 167.3 v -222.7"
         style="fill:#d9e7fa;fill-opacity:1;fill-rule:nonzero;stroke:none"
         id="path232" /><path
         d="m 24160.6,4943.5 h -167.3 v 222.7 h 167.3 v -222.7"
         style="fill:#d9e7fa;fill-opacity:1;fill-rule:nonzero;stroke:none"
         id="path234" /><path
         d="m 24450.6,4943.5 h -167.3 v 222.7 h 167.3 v -222.7"
         style="fill:#d9e7fa;fill-opacity:1;fill-rule:nonzero;stroke:none"
         id="path236" /><path
         d="m 24746.2,4943.5 h -167.3 v 222.7 h 167.3 v -222.7"
         style="fill:#d9e7fa;fill-opacity:1;fill-rule:nonzero;stroke:none"
         id="path238" /><path
         d="m 25054.2,4943.5 h -167.3 v 222.7 h 167.3 v -222.7"
         style="fill:#d9e7fa;fill-opacity:1;fill-rule:nonzero;stroke:none"
         id="path240" /><path
         d="m 25367.1,4943.5 h -167.3 v 222.7 h 167.3 v -222.7"
         style="fill:#d9e7fa;fill-opacity:1;fill-rule:nonzero;stroke:none"
         id="path242" /><path
         d="m 25672.9,4943.5 h -167.3 v 222.7 h 167.3 v -222.7"
         style="fill:#d9e7fa;fill-opacity:1;fill-rule:nonzero;stroke:none"
         id="path244" /><path
         d="m 25962.9,4943.5 h -167.3 v 222.7 h 167.3 v -222.7"
         style="fill:#d9e7fa;fill-opacity:1;fill-rule:nonzero;stroke:none"
         id="path246" /><path
         d="m 26258.5,4943.5 h -167.3 v 222.7 h 167.3 v -222.7"
         style="fill:#d9e7fa;fill-opacity:1;fill-rule:nonzero;stroke:none"
         id="path248" /><path
         d="m 26557.5,4943.5 h -167.3 v 222.7 h 167.3 v -222.7"
         style="fill:#d9e7fa;fill-opacity:1;fill-rule:nonzero;stroke:none"
         id="path250" /><path
         d="m 22038.6,4556.6 h -167.3 v 222.7 h 167.3 v -222.7"
         style="fill:#d9e7fa;fill-opacity:1;fill-rule:nonzero;stroke:none"
         id="path252" /><path
         d="m 22351.4,4556.6 h -167.3 v 222.7 h 167.3 v -222.7"
         style="fill:#d9e7fa;fill-opacity:1;fill-rule:nonzero;stroke:none"
         id="path254" /><path
         d="M 22657.3,4556.6 H 22490 v 222.7 h 167.3 v -222.7"
         style="fill:#d9e7fa;fill-opacity:1;fill-rule:nonzero;stroke:none"
         id="path256" /><path
         d="M 22947.3,4556.6 H 22780 v 222.7 h 167.3 v -222.7"
         style="fill:#d9e7fa;fill-opacity:1;fill-rule:nonzero;stroke:none"
         id="path258" /><path
         d="m 23242.9,4556.6 h -167.3 v 222.7 h 167.3 v -222.7"
         style="fill:#d9e7fa;fill-opacity:1;fill-rule:nonzero;stroke:none"
         id="path260" /><path
         d="m 23541.8,4556.6 h -167.3 v 222.7 h 167.3 v -222.7"
         style="fill:#d9e7fa;fill-opacity:1;fill-rule:nonzero;stroke:none"
         id="path262" /><path
         d="m 23854.7,4556.6 h -167.3 v 222.7 h 167.3 v -222.7"
         style="fill:#d9e7fa;fill-opacity:1;fill-rule:nonzero;stroke:none"
         id="path264" /><path
         d="m 24160.6,4556.6 h -167.3 v 222.7 h 167.3 v -222.7"
         style="fill:#d9e7fa;fill-opacity:1;fill-rule:nonzero;stroke:none"
         id="path266" /><path
         d="m 24450.6,4556.6 h -167.3 v 222.7 h 167.3 v -222.7"
         style="fill:#d9e7fa;fill-opacity:1;fill-rule:nonzero;stroke:none"
         id="path268" /><path
         d="m 24746.2,4556.6 h -167.3 v 222.7 h 167.3 v -222.7"
         style="fill:#d9e7fa;fill-opacity:1;fill-rule:nonzero;stroke:none"
         id="path270" /><path
         d="m 25054.2,4556.6 h -167.3 v 222.7 h 167.3 v -222.7"
         style="fill:#d9e7fa;fill-opacity:1;fill-rule:nonzero;stroke:none"
         id="path272" /><path
         d="m 25367.1,4556.6 h -167.3 v 222.7 h 167.3 v -222.7"
         style="fill:#d9e7fa;fill-opacity:1;fill-rule:nonzero;stroke:none"
         id="path274" /><path
         d="m 25672.9,4556.6 h -167.3 v 222.7 h 167.3 v -222.7"
         style="fill:#d9e7fa;fill-opacity:1;fill-rule:nonzero;stroke:none"
         id="path276" /><path
         d="m 25962.9,4556.6 h -167.3 v 222.7 h 167.3 v -222.7"
         style="fill:#d9e7fa;fill-opacity:1;fill-rule:nonzero;stroke:none"
         id="path278" /><path
         d="m 26258.5,4556.6 h -167.3 v 222.7 h 167.3 v -222.7"
         style="fill:#d9e7fa;fill-opacity:1;fill-rule:nonzero;stroke:none"
         id="path280" /><path
         d="m 26557.5,4556.6 h -167.3 v 222.7 h 167.3 v -222.7"
         style="fill:#d9e7fa;fill-opacity:1;fill-rule:nonzero;stroke:none"
         id="path282" /><path
         d="M 24576,2106 H 20698.1 V 4081.6 H 24576 V 2106"
         style="fill:#d9e7fa;fill-opacity:1;fill-rule:nonzero;stroke:none"
         id="path284" /><path
         d="m 21635.5,2106 h -3877.9 v 987.8 h 3877.9 V 2106"
         style="fill:#d9e7fa;fill-opacity:1;fill-rule:nonzero;stroke:none"
         id="path286" /><path
         d="m 21679.7,3484.3 h -722.5 v 365.9 h 722.5 v -365.9"
         style="fill:#dce9fa;fill-opacity:1;fill-rule:nonzero;stroke:none"
         id="path288" /><path
         d="m 22607.1,3484.3 h -722.5 v 365.9 h 722.5 v -365.9"
         style="fill:#dce9fa;fill-opacity:1;fill-rule:nonzero;stroke:none"
         id="path290" /><path
         d="m 23516.9,3484.3 h -722.5 v 365.9 h 722.5 v -365.9"
         style="fill:#dce9fa;fill-opacity:1;fill-rule:nonzero;stroke:none"
         id="path292" /><path
         d="m 24409.2,3484.3 h -722.5 v 365.9 h 722.5 v -365.9"
         style="fill:#dce9fa;fill-opacity:1;fill-rule:nonzero;stroke:none"
         id="path294" /><path
         d="m 18927.9,7452.1 h -20.2 v 154.7 h 20.2 v -154.7"
         style="fill:#dceaf9;fill-opacity:1;fill-rule:nonzero;stroke:none"
         id="path296" /><path
         d="m 19652.1,7452.1 h -20.2 v 154.7 h 20.2 v -154.7"
         style="fill:#dceaf9;fill-opacity:1;fill-rule:nonzero;stroke:none"
         id="path298" /><path
         d="m 15669.2,2122 h 2662.6 V 3813 H 15669.2 V 2122"
         style="fill:#dce9fa;fill-opacity:1;fill-rule:nonzero;stroke:none"
         id="path300" /><path
         d="m 15669.2,3484.3 h 2662.6 v 549.6 h -2662.6 v -549.6"
         style="fill:#d9e7fa;fill-opacity:1;fill-rule:nonzero;stroke:none"
         id="path302" /><path
         d="m 15987.2,3139.4 h -136.7 v 182 h 136.7 v -182"
         style="fill:#d9e7fa;fill-opacity:1;fill-rule:nonzero;stroke:none"
         id="path304" /><path
         d="m 16242.9,3139.4 h -136.7 v 182 h 136.7 v -182"
         style="fill:#d9e7fa;fill-opacity:1;fill-rule:nonzero;stroke:none"
         id="path306" /><path
         d="m 16492.9,3139.4 h -136.7 v 182 h 136.7 v -182"
         style="fill:#d9e7fa;fill-opacity:1;fill-rule:nonzero;stroke:none"
         id="path308" /><path
         d="m 16730,3139.4 h -136.8 v 182 h 136.8 v -182"
         style="fill:#d9e7fa;fill-opacity:1;fill-rule:nonzero;stroke:none"
         id="path310" /><path
         d="m 16971.6,3139.4 h -136.8 v 182 h 136.8 v -182"
         style="fill:#d9e7fa;fill-opacity:1;fill-rule:nonzero;stroke:none"
         id="path312" /><path
         d="m 17215.9,3139.4 h -136.7 v 182 h 136.7 v -182"
         style="fill:#d9e7fa;fill-opacity:1;fill-rule:nonzero;stroke:none"
         id="path314" /><path
         d="m 17471.6,3139.4 h -136.7 v 182 h 136.7 v -182"
         style="fill:#d9e7fa;fill-opacity:1;fill-rule:nonzero;stroke:none"
         id="path316" /><path
         d="m 17721.6,3139.4 h -136.7 v 182 h 136.7 v -182"
         style="fill:#d9e7fa;fill-opacity:1;fill-rule:nonzero;stroke:none"
         id="path318" /><path
         d="m 17958.7,3139.4 h -136.8 v 182 h 136.8 v -182"
         style="fill:#d9e7fa;fill-opacity:1;fill-rule:nonzero;stroke:none"
         id="path320" /><path
         d="m 18200.2,3139.4 h -136.7 v 182 h 136.7 v -182"
         style="fill:#d9e7fa;fill-opacity:1;fill-rule:nonzero;stroke:none"
         id="path322" /><path
         d="m 15987.2,2818.2 h -136.7 v 182.1 h 136.7 v -182.1"
         style="fill:#d9e7fa;fill-opacity:1;fill-rule:nonzero;stroke:none"
         id="path324" /><path
         d="m 16242.9,2818.2 h -136.7 v 182.1 h 136.7 v -182.1"
         style="fill:#d9e7fa;fill-opacity:1;fill-rule:nonzero;stroke:none"
         id="path326" /><path
         d="m 16492.9,2818.2 h -136.7 v 182.1 h 136.7 v -182.1"
         style="fill:#d9e7fa;fill-opacity:1;fill-rule:nonzero;stroke:none"
         id="path328" /><path
         d="m 16730,2818.2 h -136.8 v 182.1 h 136.8 v -182.1"
         style="fill:#d9e7fa;fill-opacity:1;fill-rule:nonzero;stroke:none"
         id="path330" /><path
         d="m 16971.6,2818.2 h -136.8 v 182.1 h 136.8 v -182.1"
         style="fill:#d9e7fa;fill-opacity:1;fill-rule:nonzero;stroke:none"
         id="path332" /><path
         d="m 17215.9,2818.2 h -136.7 v 182.1 h 136.7 v -182.1"
         style="fill:#d9e7fa;fill-opacity:1;fill-rule:nonzero;stroke:none"
         id="path334" /><path
         d="m 17471.6,2818.2 h -136.7 v 182.1 h 136.7 v -182.1"
         style="fill:#d9e7fa;fill-opacity:1;fill-rule:nonzero;stroke:none"
         id="path336" /><path
         d="m 17721.6,2818.2 h -136.7 v 182.1 h 136.7 v -182.1"
         style="fill:#d9e7fa;fill-opacity:1;fill-rule:nonzero;stroke:none"
         id="path338" /><path
         d="m 17958.7,2818.2 h -136.8 v 182.1 h 136.8 v -182.1"
         style="fill:#d9e7fa;fill-opacity:1;fill-rule:nonzero;stroke:none"
         id="path340" /><path
         d="m 18200.2,2818.2 h -136.7 v 182.1 h 136.7 v -182.1"
         style="fill:#d9e7fa;fill-opacity:1;fill-rule:nonzero;stroke:none"
         id="path342" /><path
         d="m 15987.2,2502 h -136.7 v 182 h 136.7 v -182"
         style="fill:#d9e7fa;fill-opacity:1;fill-rule:nonzero;stroke:none"
         id="path344" /><path
         d="m 16242.9,2502 h -136.7 v 182 h 136.7 v -182"
         style="fill:#d9e7fa;fill-opacity:1;fill-rule:nonzero;stroke:none"
         id="path346" /><path
         d="m 16492.9,2502 h -136.7 v 182 h 136.7 v -182"
         style="fill:#d9e7fa;fill-opacity:1;fill-rule:nonzero;stroke:none"
         id="path348" /><path
         d="m 16730,2502 h -136.8 v 182 h 136.8 v -182"
         style="fill:#d9e7fa;fill-opacity:1;fill-rule:nonzero;stroke:none"
         id="path350" /><path
         d="m 16971.6,2502 h -136.8 v 182 h 136.8 v -182"
         style="fill:#d9e7fa;fill-opacity:1;fill-rule:nonzero;stroke:none"
         id="path352" /><path
         d="m 17215.9,2502 h -136.7 v 182 h 136.7 v -182"
         style="fill:#d9e7fa;fill-opacity:1;fill-rule:nonzero;stroke:none"
         id="path354" /><path
         d="m 17471.6,2502 h -136.7 v 182 h 136.7 v -182"
         style="fill:#d9e7fa;fill-opacity:1;fill-rule:nonzero;stroke:none"
         id="path356" /><path
         d="m 17721.6,2502 h -136.7 v 182 h 136.7 v -182"
         style="fill:#d9e7fa;fill-opacity:1;fill-rule:nonzero;stroke:none"
         id="path358" /><path
         d="m 17958.7,2502 h -136.8 v 182 h 136.8 v -182"
         style="fill:#d9e7fa;fill-opacity:1;fill-rule:nonzero;stroke:none"
         id="path360" /><path
         d="m 18200.2,2502 h -136.7 v 182 h 136.7 v -182"
         style="fill:#d9e7fa;fill-opacity:1;fill-rule:nonzero;stroke:none"
         id="path362" /><path
         d="m 12999.2,2122 h 2662.7 V 3813 H 12999.2 V 2122"
         style="fill:#dce9fa;fill-opacity:1;fill-rule:nonzero;stroke:none"
         id="path364" /><path
         d="m 12999.2,3484.3 h 2662.7 v 549.6 h -2662.7 v -549.6"
         style="fill:#d9e7fa;fill-opacity:1;fill-rule:nonzero;stroke:none"
         id="path366" /><path
         d="m 13317.3,3139.4 h -136.8 v 182 h 136.8 v -182"
         style="fill:#d9e7fa;fill-opacity:1;fill-rule:nonzero;stroke:none"
         id="path368" /><path
         d="m 13573,3139.4 h -136.7 v 182 h 136.7 v -182"
         style="fill:#d9e7fa;fill-opacity:1;fill-rule:nonzero;stroke:none"
         id="path370" /><path
         d="m 13823,3139.4 h -136.8 v 182 h 136.8 v -182"
         style="fill:#d9e7fa;fill-opacity:1;fill-rule:nonzero;stroke:none"
         id="path372" /><path
         d="m 14060,3139.4 h -136.7 v 182 h 136.7 v -182"
         style="fill:#d9e7fa;fill-opacity:1;fill-rule:nonzero;stroke:none"
         id="path374" /><path
         d="m 14301.6,3139.4 h -136.7 v 182 h 136.7 v -182"
         style="fill:#d9e7fa;fill-opacity:1;fill-rule:nonzero;stroke:none"
         id="path376" /><path
         d="m 14546,3139.4 h -136.8 v 182 h 136.8 v -182"
         style="fill:#d9e7fa;fill-opacity:1;fill-rule:nonzero;stroke:none"
         id="path378" /><path
         d="m 14801.7,3139.4 h -136.8 v 182 h 136.8 v -182"
         style="fill:#d9e7fa;fill-opacity:1;fill-rule:nonzero;stroke:none"
         id="path380" /><path
         d="m 15051.7,3139.4 h -136.8 v 182 h 136.8 v -182"
         style="fill:#d9e7fa;fill-opacity:1;fill-rule:nonzero;stroke:none"
         id="path382" /><path
         d="M 15288.7,3139.4 H 15152 v 182 h 136.7 v -182"
         style="fill:#d9e7fa;fill-opacity:1;fill-rule:nonzero;stroke:none"
         id="path384" /><path
         d="m 15530.3,3139.4 h -136.8 v 182 h 136.8 v -182"
         style="fill:#d9e7fa;fill-opacity:1;fill-rule:nonzero;stroke:none"
         id="path386" /><path
         d="m 13317.3,2818.2 h -136.8 v 182.1 h 136.8 v -182.1"
         style="fill:#d9e7fa;fill-opacity:1;fill-rule:nonzero;stroke:none"
         id="path388" /><path
         d="m 13573,2818.2 h -136.7 v 182.1 h 136.7 v -182.1"
         style="fill:#d9e7fa;fill-opacity:1;fill-rule:nonzero;stroke:none"
         id="path390" /><path
         d="m 13823,2818.2 h -136.8 v 182.1 h 136.8 v -182.1"
         style="fill:#d9e7fa;fill-opacity:1;fill-rule:nonzero;stroke:none"
         id="path392" /><path
         d="m 14060,2818.2 h -136.7 v 182.1 h 136.7 v -182.1"
         style="fill:#d9e7fa;fill-opacity:1;fill-rule:nonzero;stroke:none"
         id="path394" /><path
         d="m 14301.6,2818.2 h -136.7 v 182.1 h 136.7 v -182.1"
         style="fill:#d9e7fa;fill-opacity:1;fill-rule:nonzero;stroke:none"
         id="path396" /><path
         d="m 14546,2818.2 h -136.8 v 182.1 h 136.8 v -182.1"
         style="fill:#d9e7fa;fill-opacity:1;fill-rule:nonzero;stroke:none"
         id="path398" /><path
         d="m 14801.7,2818.2 h -136.8 v 182.1 h 136.8 v -182.1"
         style="fill:#d9e7fa;fill-opacity:1;fill-rule:nonzero;stroke:none"
         id="path400" /><path
         d="m 15051.7,2818.2 h -136.8 v 182.1 h 136.8 v -182.1"
         style="fill:#d9e7fa;fill-opacity:1;fill-rule:nonzero;stroke:none"
         id="path402" /><path
         d="M 15288.7,2818.2 H 15152 v 182.1 h 136.7 v -182.1"
         style="fill:#d9e7fa;fill-opacity:1;fill-rule:nonzero;stroke:none"
         id="path404" /><path
         d="m 15530.3,2818.2 h -136.8 v 182.1 h 136.8 v -182.1"
         style="fill:#d9e7fa;fill-opacity:1;fill-rule:nonzero;stroke:none"
         id="path406" /><path
         d="m 13317.3,2502 h -136.8 v 182 h 136.8 v -182"
         style="fill:#d9e7fa;fill-opacity:1;fill-rule:nonzero;stroke:none"
         id="path408" /><path
         d="m 13573,2502 h -136.7 v 182 h 136.7 v -182"
         style="fill:#d9e7fa;fill-opacity:1;fill-rule:nonzero;stroke:none"
         id="path410" /><path
         d="m 13823,2502 h -136.8 v 182 h 136.8 v -182"
         style="fill:#d9e7fa;fill-opacity:1;fill-rule:nonzero;stroke:none"
         id="path412" /><path
         d="m 14060,2502 h -136.7 v 182 h 136.7 v -182"
         style="fill:#d9e7fa;fill-opacity:1;fill-rule:nonzero;stroke:none"
         id="path414" /><path
         d="m 14301.6,2502 h -136.7 v 182 h 136.7 v -182"
         style="fill:#d9e7fa;fill-opacity:1;fill-rule:nonzero;stroke:none"
         id="path416" /><path
         d="m 14546,2502 h -136.8 v 182 h 136.8 v -182"
         style="fill:#d9e7fa;fill-opacity:1;fill-rule:nonzero;stroke:none"
         id="path418" /><path
         d="m 14801.7,2502 h -136.8 v 182 h 136.8 v -182"
         style="fill:#d9e7fa;fill-opacity:1;fill-rule:nonzero;stroke:none"
         id="path420" /><path
         d="m 15051.7,2502 h -136.8 v 182 h 136.8 v -182"
         style="fill:#d9e7fa;fill-opacity:1;fill-rule:nonzero;stroke:none"
         id="path422" /><path
         d="M 15288.7,2502 H 15152 v 182 h 136.7 v -182"
         style="fill:#d9e7fa;fill-opacity:1;fill-rule:nonzero;stroke:none"
         id="path424" /><path
         d="m 15530.3,2502 h -136.8 v 182 h 136.8 v -182"
         style="fill:#d9e7fa;fill-opacity:1;fill-rule:nonzero;stroke:none"
         id="path426" /><path
         d="m 10163.1,2122 h 2662.7 V 3813 H 10163.1 V 2122"
         style="fill:#dce9fa;fill-opacity:1;fill-rule:nonzero;stroke:none"
         id="path428" /><path
         d="m 10163.1,3484.3 h 2662.7 v 549.6 h -2662.7 v -549.6"
         style="fill:#d9e7fa;fill-opacity:1;fill-rule:nonzero;stroke:none"
         id="path430" /><path
         d="m 10481.2,3139.4 h -136.8 v 182 h 136.8 v -182"
         style="fill:#d9e7fa;fill-opacity:1;fill-rule:nonzero;stroke:none"
         id="path432" /><path
         d="m 10736.9,3139.4 h -136.8 v 182 h 136.8 v -182"
         style="fill:#d9e7fa;fill-opacity:1;fill-rule:nonzero;stroke:none"
         id="path434" /><path
         d="m 10986.9,3139.4 h -136.8 v 182 h 136.8 v -182"
         style="fill:#d9e7fa;fill-opacity:1;fill-rule:nonzero;stroke:none"
         id="path436" /><path
         d="m 11223.9,3139.4 h -136.7 v 182 h 136.7 v -182"
         style="fill:#d9e7fa;fill-opacity:1;fill-rule:nonzero;stroke:none"
         id="path438" /><path
         d="m 11465.5,3139.4 h -136.7 v 182 h 136.7 v -182"
         style="fill:#d9e7fa;fill-opacity:1;fill-rule:nonzero;stroke:none"
         id="path440" /><path
         d="m 11709.8,3139.4 h -136.7 v 182 h 136.7 v -182"
         style="fill:#d9e7fa;fill-opacity:1;fill-rule:nonzero;stroke:none"
         id="path442" /><path
         d="m 11965.6,3139.4 h -136.8 v 182 h 136.8 v -182"
         style="fill:#d9e7fa;fill-opacity:1;fill-rule:nonzero;stroke:none"
         id="path444" /><path
         d="m 12215.6,3139.4 h -136.8 v 182 h 136.8 v -182"
         style="fill:#d9e7fa;fill-opacity:1;fill-rule:nonzero;stroke:none"
         id="path446" /><path
         d="m 12452.6,3139.4 h -136.8 v 182 h 136.8 v -182"
         style="fill:#d9e7fa;fill-opacity:1;fill-rule:nonzero;stroke:none"
         id="path448" /><path
         d="m 12694.2,3139.4 h -136.8 v 182 h 136.8 v -182"
         style="fill:#d9e7fa;fill-opacity:1;fill-rule:nonzero;stroke:none"
         id="path450" /><path
         d="m 10481.2,2818.2 h -136.8 v 182.1 h 136.8 v -182.1"
         style="fill:#d9e7fa;fill-opacity:1;fill-rule:nonzero;stroke:none"
         id="path452" /><path
         d="m 10736.9,2818.2 h -136.8 v 182.1 h 136.8 v -182.1"
         style="fill:#d9e7fa;fill-opacity:1;fill-rule:nonzero;stroke:none"
         id="path454" /><path
         d="m 10986.9,2818.2 h -136.8 v 182.1 h 136.8 v -182.1"
         style="fill:#d9e7fa;fill-opacity:1;fill-rule:nonzero;stroke:none"
         id="path456" /><path
         d="m 11223.9,2818.2 h -136.7 v 182.1 h 136.7 v -182.1"
         style="fill:#d9e7fa;fill-opacity:1;fill-rule:nonzero;stroke:none"
         id="path458" /><path
         d="m 11465.5,2818.2 h -136.7 v 182.1 h 136.7 v -182.1"
         style="fill:#d9e7fa;fill-opacity:1;fill-rule:nonzero;stroke:none"
         id="path460" /><path
         d="m 11709.8,2818.2 h -136.7 v 182.1 h 136.7 v -182.1"
         style="fill:#d9e7fa;fill-opacity:1;fill-rule:nonzero;stroke:none"
         id="path462" /><path
         d="m 11965.6,2818.2 h -136.8 v 182.1 h 136.8 v -182.1"
         style="fill:#d9e7fa;fill-opacity:1;fill-rule:nonzero;stroke:none"
         id="path464" /><path
         d="m 12215.6,2818.2 h -136.8 v 182.1 h 136.8 v -182.1"
         style="fill:#d9e7fa;fill-opacity:1;fill-rule:nonzero;stroke:none"
         id="path466" /><path
         d="m 12452.6,2818.2 h -136.8 v 182.1 h 136.8 v -182.1"
         style="fill:#d9e7fa;fill-opacity:1;fill-rule:nonzero;stroke:none"
         id="path468" /><path
         d="m 12694.2,2818.2 h -136.8 v 182.1 h 136.8 v -182.1"
         style="fill:#d9e7fa;fill-opacity:1;fill-rule:nonzero;stroke:none"
         id="path470" /><path
         d="m 10481.2,2502 h -136.8 v 182 h 136.8 v -182"
         style="fill:#d9e7fa;fill-opacity:1;fill-rule:nonzero;stroke:none"
         id="path472" /><path
         d="m 10736.9,2502 h -136.8 v 182 h 136.8 v -182"
         style="fill:#d9e7fa;fill-opacity:1;fill-rule:nonzero;stroke:none"
         id="path474" /><path
         d="m 10986.9,2502 h -136.8 v 182 h 136.8 v -182"
         style="fill:#d9e7fa;fill-opacity:1;fill-rule:nonzero;stroke:none"
         id="path476" /><path
         d="m 11223.9,2502 h -136.7 v 182 h 136.7 v -182"
         style="fill:#d9e7fa;fill-opacity:1;fill-rule:nonzero;stroke:none"
         id="path478" /><path
         d="m 11465.5,2502 h -136.7 v 182 h 136.7 v -182"
         style="fill:#d9e7fa;fill-opacity:1;fill-rule:nonzero;stroke:none"
         id="path480" /><path
         d="m 11709.8,2502 h -136.7 v 182 h 136.7 v -182"
         style="fill:#d9e7fa;fill-opacity:1;fill-rule:nonzero;stroke:none"
         id="path482" /><path
         d="m 11965.6,2502 h -136.8 v 182 h 136.8 v -182"
         style="fill:#d9e7fa;fill-opacity:1;fill-rule:nonzero;stroke:none"
         id="path484" /><path
         d="m 12215.6,2502 h -136.8 v 182 h 136.8 v -182"
         style="fill:#d9e7fa;fill-opacity:1;fill-rule:nonzero;stroke:none"
         id="path486" /><path
         d="m 12452.6,2502 h -136.8 v 182 h 136.8 v -182"
         style="fill:#d9e7fa;fill-opacity:1;fill-rule:nonzero;stroke:none"
         id="path488" /><path
         d="m 12694.2,2502 h -136.8 v 182 h 136.8 v -182"
         style="fill:#d9e7fa;fill-opacity:1;fill-rule:nonzero;stroke:none"
         id="path490" /><path
         d="m 2596.92,7873 c 0.02,0.5 0.04,0.9 0.05,1.4 -0.01,-0.5 -0.03,-0.9 -0.05,-1.4 m 23774.38,3561.6 c 0.1,0.3 0.2,0.5 0.2,0.8 0,-0.3 -0.1,-0.5 -0.2,-0.8 m 1.3,4.7 c 0.1,0.3 0.2,0.8 0.3,1.2 -0.1,-0.4 -0.2,-0.8 -0.3,-1.2 m 1.3,4.6 c 0.2,0.7 0.3,1.3 0.5,1.9 -0.2,-0.6 -0.3,-1.2 -0.5,-1.9 m 1.3,4.9 c 0.2,0.7 0.4,1.5 0.6,2.2 -0.2,-0.8 -0.4,-1.5 -0.6,-2.2 m 1.4,5 c 0.2,0.9 0.5,1.8 0.7,2.7 -0.2,-0.9 -0.5,-1.8 -0.7,-2.7 m 1.4,5 c 0.4,1.6 0.9,3.3 1.3,5 122,453.2 186.9,895.7 186.7,1323.5 0.2,-427.8 -64.7,-870.3 -186.7,-1323.5 -0.4,-1.7 -0.9,-3.4 -1.3,-5"
         style="fill:#fbfdff;fill-opacity:1;fill-rule:nonzero;stroke:none"
         id="path492" /><path
         d="m 2591.2,7390.7 c -2.04,161.8 -0.28,322.7 5.72,482.3 0.02,0.5 0.04,0.9 0.05,1.4 0.09,2.3 0.18,4.7 0.27,7 20.33,477.2 74.29,965.7 203.92,1469.8 l 22607.14,6127.1 c 14.7,-14 29.4,-28 43.9,-42.1 773.9,-773.4 1113.4,-1672.7 1113.8,-2648.9 0.2,-427.8 -64.7,-870.3 -186.7,-1323.5 -0.4,-1.7 -0.9,-3.4 -1.3,-5 -0.3,-0.8 -0.5,-1.6 -0.7,-2.3 -0.2,-0.9 -0.5,-1.8 -0.7,-2.7 -0.3,-1 -0.5,-1.9 -0.8,-2.8 -0.2,-0.7 -0.4,-1.5 -0.6,-2.2 -0.2,-1 -0.5,-2 -0.8,-3 -0.2,-0.6 -0.3,-1.2 -0.5,-1.9 -0.3,-1.1 -0.6,-2.3 -1,-3.4 -0.1,-0.4 -0.2,-0.9 -0.3,-1.2 -0.3,-1.3 -0.7,-2.6 -1.1,-3.9 0,-0.3 -0.1,-0.5 -0.2,-0.8 -109.9,-397.5 -250.8,-760.6 -418.6,-1128.9 L 2591.2,7390.7"
         style="fill:#f2f7fd;fill-opacity:1;fill-rule:nonzero;stroke:none"
         id="path494" /><path
         d="M 17461.6,2185.3 H 3683.93 c -44.44,112.8 -152.74,396.4 -284.83,801.4 -95.36,292.2 -203,647.6 -307.95,1047.6 -73.25,279.1 -145.05,579.9 -210.48,896.1 v 196 L 4256.73,6246 c 0,0 2848.57,92.2 4022.41,-1253.6 1173.84,-1345.9 4452.86,-198.9 5346.06,-965.1 893.3,-766.2 1634.7,-1447.2 2489.9,-1257.8 855.1,189.5 1346.5,-584.2 1346.5,-584.2"
         style="fill:#c7dcf9;fill-opacity:1;fill-rule:nonzero;stroke:none"
         id="path496" /><path
         d="M 10600.1,13232.9 4047.48,11715 c 300.24,388.9 605.4,724.4 914.36,1013.4 l 5638.26,504.5"
         style="fill:#f8fbff;fill-opacity:1;fill-rule:nonzero;stroke:none"
         id="path498" /><path
         d="m 20186.6,15437.2 c 0,202.6 164.2,366.7 366.7,366.7 202.6,0 366.8,-164.1 366.8,-366.7 0,-202.5 -164.2,-366.7 -366.8,-366.7 -202.5,0 -366.7,164.2 -366.7,366.7"
         style="fill:#f8fbff;fill-opacity:1;fill-rule:nonzero;stroke:none"
         id="path500" /><path
         d="m 27081.4,2192.4 h -1085.9 c -58.2,49.4 40.2,161.5 143.1,169 44.7,3.4 101.2,-6 165.8,-19.6 14.9,198.5 100.2,1090.8 421.9,1054.9 361.6,-40.1 0,-392.9 -102.2,-601.8 -75.8,-154.7 -155.7,-376.6 -192.2,-481.3 29.4,-6.4 59.8,-12.6 90.8,-18.3 48,147.2 226.3,642.2 453.1,613.4 266.3,-33.8 159.3,-232.3 -29.5,-350.1 -138.4,-86.7 -308.5,-209.8 -389.3,-269.3 68.5,-11.2 139.9,-18.7 212.4,-17 186,4.4 276.8,-50.4 312,-79.9"
         style="fill:#82b378;fill-opacity:1;fill-rule:nonzero;stroke:none"
         id="path502" /><path
         d="m 10601.4,2212.3 c -33.8,53 -135.3,190.5 -270.5,172.3 -147.4,-19.8 162.7,-117 257.6,-172.7 -21.1,-0.3 -39.2,1.4 -52.5,6.1 -63.5,22.6 -172.1,-20.8 -206.9,-36 h 604.2 c -4.2,14.5 -15.1,38.1 -43.2,55.3 -10,6 -29.9,6.9 -55.6,4.9 35.9,42.4 60.8,177.6 -39.2,142.8 -73,-25.4 -72.8,-108.1 -65.7,-157 -15.5,-2.4 -31.3,-4.9 -46.8,-7.1 -30.1,153.3 -136.5,602.6 -352.1,614.6 -218.6,12.1 185.3,-466 319.8,-618.9 -17.2,-2.1 -33.8,-3.6 -49.1,-4.3"
         style="fill:#82b378;fill-opacity:1;fill-rule:nonzero;stroke:none"
         id="path504" /><path
         d="m 17950.7,6331.6 c -126,-137.2 -314.9,-278.6 -14.5,-592.5 385.1,-402.2 980.8,-2135.3 980.8,-2135.3 -20.5,-66.2 0.5,-158.1 -46.6,-185.2 -76.2,-43.6 -270.7,89.7 -270.7,89.7 0,0 -1768.8,1832.3 -1912.3,2244.3 -105.9,304.2 435.7,1777.9 759.8,2550 114.8,273.6 202.4,459 224.1,473.4 3.4,2.3 6.7,4.4 10.1,6.4 190.6,120.8 369.9,105.4 530.1,12.7 34.2,-19.9 67.6,-43.1 100,-69.4 395.7,-321 649.9,-1082.6 623.5,-1241 -18.3,-110.2 -211.3,-343.5 -423.1,-573.3 -44,-47.7 -88.8,-95.3 -133,-141.5 -192.6,-201.9 -374.2,-379.4 -428.2,-438.3"
         style="fill:#f99746;fill-opacity:1;fill-rule:nonzero;stroke:none"
         id="path506" /><path
         d="m 18511.9,6911.4 c -44,-47.7 -88.8,-95.3 -133,-141.5 l -931.7,1532.7 c 114.8,273.6 202.4,459 224.1,473.4 3.4,2.3 6.7,4.4 10.1,6.4 l 530.1,12.7 95.8,2.3 4.2,-71.7 200.4,-1814.3"
         style="fill:#ed7d2b;fill-opacity:1;fill-rule:nonzero;stroke:none"
         id="path508" /><path
         d="m 17984.5,12242.9 c 0,0 198.3,-484.3 146.8,-772.6 -51.4,-288.2 -733.6,-1724.3 -982.3,-1970.1 -248.7,-245.8 -1897.6,799.7 -1897.6,799.7 l 162.3,155 c 0,0 1304.3,-332 1373.3,-227.9 69,104.2 401,2150.5 1197.5,2015.9"
         style="fill:#ffb27d;fill-opacity:1;fill-rule:nonzero;stroke:none"
         id="path510" /><path
         d="m 17945.4,8446.4 c 0,0 338.4,-1691.7 1192.1,-2881.9 825,-1150.2 1254.1,-2912.9 1254.1,-2912.9 0,0 54.8,-42.7 162.6,3 107.7,45.8 180,-9.7 201.7,42.6 0,0 -155.8,2782.5 -583.9,3391.7 -241.9,344.2 -370.9,1607.7 -362.7,1951.5 8.2,343.9 -142.2,765.4 -142.2,765.4 l -1721.7,-359.4"
         style="fill:#f99746;fill-opacity:1;fill-rule:nonzero;stroke:none"
         id="path512" /><path
         d="m 20748,2197.4 -199.6,-1.4 c -67,10 -116.5,29.1 -185.1,37.5 -104.3,13 -151.9,-30.1 -161.4,-39.9 -1.2,-1.3 -1.8,-2.1 -1.8,-2.1 l -847.9,-5.9 c -21.6,30.3 -1.6,101 18.1,153.1 13.3,35.4 42.6,62.3 78.9,73.1 89.7,26.7 266.8,51.1 428.1,199.2 90.8,83.1 438.9,306.5 438.9,306.5 l 1.9,0.5 c 7.7,-0.1 44.3,-11.1 204.3,-144.3 82.7,-68.7 221.7,99.5 221.7,99.5 0,0 26.4,-21.6 46.4,-62 16,-31.9 27.8,-75.8 19.1,-130.1 -12.1,-76.5 29.7,-218.2 62.9,-314 20.2,-58 37.2,-99.2 37.2,-99.2 0,0 9.8,-47.8 -161.7,-70.5"
         style="fill:#233862;fill-opacity:1;fill-rule:nonzero;stroke:none"
         id="path514" /><path
         d="m 20790.5,2811.2 c -47.5,-33.9 -147.6,-100.8 -214.2,-109.9 -90,-12.5 -260.1,216.2 -260.1,216.2 l 1.9,0.5 c 7.7,-0.1 44.3,-11.1 204.3,-144.3 82.7,-68.7 221.7,99.5 221.7,99.5 0,0 26.4,-21.6 46.4,-62"
         style="fill:#233862;fill-opacity:1;fill-rule:nonzero;stroke:none"
         id="path516" /><path
         d="m 20748,2197.4 -199.6,-1.4 c -67,10 -116.5,29.1 -185.1,37.5 -104.3,13 -151.9,-30.1 -161.4,-39.9 -1.2,-1.3 -1.8,-2.1 -1.8,-2.1 l -847.9,-5.9 c -21.6,30.3 -1.6,101 18.1,153.1 25.6,23.1 33.7,-99.2 48.1,-118.6 14.4,-19.4 691.7,-2.3 730.7,26.4 38.9,28.8 155.9,79.4 319.8,41.4 142.6,-33 351.9,55.7 403.6,79.2 20.2,-58 37.2,-99.2 37.2,-99.2 0,0 9.8,-47.8 -161.7,-70.5"
         style="fill:#233862;fill-opacity:1;fill-rule:nonzero;stroke:none"
         id="path518" /><path
         d="m 19718.9,9869.7 c 0.7,948.5 -172.9,2317.3 -410.2,2422.5 -201.5,89.3 -641.2,217 -1094.4,210.1 -357.7,-5.4 -1120.1,-172.6 -1197.6,-763.7 -49.1,-374.2 -69,-682.4 -69,-682.4 0,0 82,-238.8 308.1,-302.8 28.1,-105.7 41,-210.5 74.7,-299.1 375.4,-988.9 191,-1978.3 191,-1978.3 345.6,-287.4 2065.5,-119.1 2238.8,-6.1 282.3,184.1 -42.1,451.3 -41.4,1399.8"
         style="fill:#2a4e96;fill-opacity:1;fill-rule:nonzero;stroke:none"
         id="path520" /><path
         d="m 19306.7,3366.4 -143.2,-139 c -55.3,-39.1 -104.3,-59.6 -159.7,-100.9 -84.2,-62.8 -88.9,-126.8 -88.9,-140.5 0,-1.8 0.1,-2.7 0.1,-2.7 l -608.3,-590.7 c -36.6,7 -71,71.9 -92.8,123.1 -14.9,34.7 -12.4,74.4 6.4,107.4 46.4,81.3 157.4,221.4 171.5,439.9 8,122.9 105,525 105,525 l 1,1.6 c 5.6,5.2 39.7,22.6 247.3,37.1 107.3,7.6 91.4,225.1 91.4,225.1 0,0 34,2.7 76.4,-12.7 33.6,-11.9 72.5,-35.4 103.7,-80.7 44.2,-63.6 172.4,-137 262.6,-183.2 54.8,-28 95.4,-46 95.4,-46 0,0 40.3,-27.7 -67.9,-162.8"
         style="fill:#233862;fill-opacity:1;fill-rule:nonzero;stroke:none"
         id="path522" /><path
         d="m 18912.9,3839.1 c -10.8,-57.2 -36.9,-174.8 -78.7,-227.5 -56.4,-71.2 -337.4,-23.6 -337.4,-23.6 l 1,1.6 c 5.6,5.2 39.7,22.6 247.3,37.1 107.3,7.6 91.4,225.1 91.4,225.1 0,0 34,2.7 76.4,-12.7"
         style="fill:#233862;fill-opacity:1;fill-rule:nonzero;stroke:none"
         id="path524" /><path
         d="m 19306.7,3366.4 -143.2,-139 c -55.3,-39.1 -104.3,-59.6 -159.7,-100.9 -84.2,-62.8 -88.9,-126.8 -88.9,-140.5 0,-1.8 0.1,-2.7 0.1,-2.7 l -608.3,-590.7 c -36.6,7 -71,71.9 -92.8,123.1 2.5,34.4 93,-48.3 116.7,-52.4 23.8,-4.1 501.2,476.8 509.5,524.4 8.2,47.7 57.8,165.2 202.4,251.1 125.8,74.8 215.6,283.6 236.7,336.4 54.8,-28 95.4,-46 95.4,-46 0,0 40.3,-27.7 -67.9,-162.8"
         style="fill:#233862;fill-opacity:1;fill-rule:nonzero;stroke:none"
         id="path526" /><path
         d="m 18815.6,12167 c 0,0 523.4,5.7 772.4,-148.3 249,-154.1 1332.4,-1317.6 1469.2,-1639.4 136.8,-321.8 -1120.6,-1239.4 -1120.6,-1239.4 l -177.2,282.3 c 0,0 560.1,786 488.7,888.5 -71.3,102.5 -1851.2,1165.5 -1432.5,1856.3"
         style="fill:#ffb27d;fill-opacity:1;fill-rule:nonzero;stroke:none"
         id="path528" /><path
         d="m 19825.4,9465.4 208.8,-160.8 c 0,0 -183.6,-396.5 -283.9,-433.8 l -10.4,-2.1 c -107.8,-21.5 -375.4,153.4 -420.2,334.1 -3.7,18.7 -2.9,36.1 2.5,52.2 41.4,109.4 292.3,171.4 423.4,196.8 47.9,9.3 79.8,13.6 79.8,13.6"
         style="fill:#ffb27d;fill-opacity:1;fill-rule:nonzero;stroke:none"
         id="path530" /><path
         d="m 15557.6,10419.8 -104.5,-241.9 c 0,0 -429.6,80.6 -490.4,168.6 l -4.5,9.6 c -47.4,99.1 56.4,401.6 220.6,489.3 17.1,8.2 34.2,11.7 51.2,10.4 116.1,-13.2 238,-241.1 294.8,-362 20.8,-44.1 32.8,-74 32.8,-74"
         style="fill:#ffb27d;fill-opacity:1;fill-rule:nonzero;stroke:none"
         id="path532" /><path
         d="m 18617.6,12476.1 c 0,0 485.3,-21.8 833.7,-238.1 160.5,-99.6 776.9,-683.6 776.9,-683.6 0,0 -68.4,-610.2 -802.5,-775.6 -747.2,-168.4 -867.3,1080.4 -867.3,1080.4 l 59.2,616.9"
         style="fill:#2a4e96;fill-opacity:1;fill-rule:nonzero;stroke:none"
         id="path534" /><path
         d="m 18484.6,12467.3 c 23.4,-34.2 24,-79.1 2,-114.1 -65.1,-103.3 -247.6,-281.9 -722.8,-249.3 -162.8,11.3 -200.1,134.4 -97.1,260.9 25.1,30.9 16.6,208.1 13.9,279.3 -9.4,164.3 -3.3,256.6 -3.3,256.6 l 336.7,230.5 319.4,220.8 c -52.5,-516.3 83.9,-786.2 151.2,-884.7"
         style="fill:#ffb27d;fill-opacity:1;fill-rule:nonzero;stroke:none"
         id="path536" /><path
         d="m 18321.8,13092.6 c 0,0 -235,-368.2 -641.2,-448.5 -9.4,164.3 -3.3,256.6 -3.3,256.6 l 336.7,230.5 307.8,-38.6"
         style="fill:#ed985f;fill-opacity:1;fill-rule:nonzero;stroke:none"
         id="path538" /><path
         d="m 17532.2,12921.4 c 0,0 782.6,-181.8 889.2,299.7 106.5,481.5 279.2,782.3 -216,918.8 -495.2,136.5 -633.3,-26.2 -708.5,-178.3 -75.3,-152.1 -165.6,-980.4 35.3,-1040.2"
         style="fill:#ffb27d;fill-opacity:1;fill-rule:nonzero;stroke:none"
         id="path540" /><path
         d="m 18772.5,14160.8 c 7.7,7.7 24.7,13.3 61.7,12.8 0,0 -28.2,20.4 -67.6,24 -4.3,51.8 -25.5,144.3 -112.3,172.3 0,0 45.7,-28.5 48.3,-83.4 -95.2,111.8 -309.2,202.7 -918.7,195 -803.4,-10.1 -573.9,-539.2 -474.5,-607.1 99.4,-67.9 370.9,82.1 562.7,54 191.7,-28 210,-309 272.8,-351.6 62.9,-42.5 41.6,26.7 132.8,60.9 91.1,34.1 89.8,-113.1 57.9,-206.7 -31.9,-93.6 81.4,-227.4 81.4,-227.4 0,0 0,0 131.6,124.1 131.6,124.2 284.6,676.9 236.6,800.1 -4.2,10.9 -8.4,21.9 -12.7,33"
         style="fill:#2c3a64;fill-opacity:1;fill-rule:nonzero;stroke:none"
         id="path542" /><path
         d="m 17464.9,13225.9 c 0,0 21.2,-71.4 100.6,-80.6 79.3,-9.3 131.2,47.2 131.2,47.2 0,0 -130.1,60.6 -231.8,33.4"
         style="fill:#ffffff;fill-opacity:1;fill-rule:nonzero;stroke:none"
         id="path544" /><path
         d="m 22171,9031.7 h -64.6 l 0.6,5 19.5,172.2 c 0.6,5.5 5.3,9.7 10.9,9.7 l 2,-0.1 c 3.7,-0.4 7,-2 9.6,-4.4 3.1,-2.8 5.1,-6.7 5.5,-11.1 l 16.5,-171.3"
         style="fill:#a2c5f9;fill-opacity:1;fill-rule:nonzero;stroke:none"
         id="path546" /><path
         d="m 22112.6,9070.7 h -2.3 l 16.2,138.2 c 0.6,5.5 5.3,9.7 10.9,9.7 l 2,-0.1 1.7,-1.6 c 2.9,-3.1 4.6,-7.1 4.6,-11.6 l 1,-99.3 c 0.1,-19.1 -15,-34.8 -34.1,-35.3"
         style="fill:#afcdfb;fill-opacity:1;fill-rule:nonzero;stroke:none"
         id="path548" /><path
         d="m 22212.1,8265.5 v -5496 h -124.5 v 5496 h 124.5"
         style="fill:#a2c5f9;fill-opacity:1;fill-rule:nonzero;stroke:none"
         id="path550" /><path
         d="m 22145.1,8265.5 v -5496 h -57.5 v 5496 h 57.5"
         style="fill:#afcdfb;fill-opacity:1;fill-rule:nonzero;stroke:none"
         id="path552" /><path
         d="M 22348.1,3646.6 V 2192.4 h -396.5 v 1454.2 h 396.5"
         style="fill:#a2c5f9;fill-opacity:1;fill-rule:nonzero;stroke:none"
         id="path554" /><path
         d="M 22187.9,3646.6 V 2192.4 h -236.3 v 1454.2 h 236.3"
         style="fill:#afcdfb;fill-opacity:1;fill-rule:nonzero;stroke:none"
         id="path556" /><path
         d="m 22366.5,8948.7 c 0,-67.9 -102,-122.9 -227.8,-122.9 -9.6,0 -19.1,0.3 -28.4,0.9 -112.4,7.5 -199.4,59.3 -199.4,122 0,62.7 87,114.4 199.4,122 9.3,0.6 18.8,0.9 28.4,0.9 125.8,0 227.8,-55 227.8,-122.9"
         style="fill:#a2c5f9;fill-opacity:1;fill-rule:nonzero;stroke:none"
         id="path558" /><path
         d="m 22248.6,8948.7 c 0,-54.7 -57,-101.7 -138.3,-122 -112.4,7.5 -199.4,59.3 -199.4,122 0,62.7 87,114.4 199.4,122 81.3,-20.3 138.3,-67.3 138.3,-122"
         style="fill:#afcdfb;fill-opacity:1;fill-rule:nonzero;stroke:none"
         id="path560" /><path
         d="m 22347.6,8157.1 h -396.4 l -139.8,673 h 654.6 l -118.4,-673"
         style="fill:#afcdfb;fill-opacity:1;fill-rule:nonzero;stroke:none"
         id="path562" /><path
         d="m 22501.3,8880.8 v -64.5 H 21776 v 64.5 h 725.3"
         style="fill:#a2c5f9;fill-opacity:1;fill-rule:nonzero;stroke:none"
         id="path564" /><path
         d="m 22232,8880.8 v -64.5 h -456 v 64.5 h 456"
         style="fill:#afcdfb;fill-opacity:1;fill-rule:nonzero;stroke:none"
         id="path566" /><path
         d="m 22016.6,3646.6 h 253.3 l -37.1,112.4 c -3.3,10 -12.6,16.7 -23.1,16.7 H 22091 c -12.8,0 -24.4,-7.7 -29.3,-19.6 l -45.1,-109.5"
         style="fill:#a2c5f9;fill-opacity:1;fill-rule:nonzero;stroke:none"
         id="path568" /><path
         d="m 21858.3,8797.3 h 559 l -109.2,-604.9 h -321 l -128.8,604.9"
         style="fill:#c7dcf9;fill-opacity:1;fill-rule:nonzero;stroke:none"
         id="path570" /><path
         d="m 21925.9,8941.5 c 0,0 42.6,93 126.7,90.2 0,0 -53.5,-47.7 -48.6,-90.2 4.9,-42.6 -78.1,0 -78.1,0"
         style="fill:#c7dcf9;fill-opacity:1;fill-rule:nonzero;stroke:none"
         id="path572" /><path
         d="m 22455,8880.8 h -632.6 l 51.8,73.8 h 531.6 l 49.2,-73.8"
         style="fill:#a2c5f9;fill-opacity:1;fill-rule:nonzero;stroke:none"
         id="path574" /><path
         d="m 22299.2,8880.8 h -476.8 l 51.8,73.8 h 375.8 l 49.2,-73.8"
         style="fill:#afcdfb;fill-opacity:1;fill-rule:nonzero;stroke:none"
         id="path576" /><path
         d="m 21895.4,8776.2 h 128.1 l 37.3,-564.8 h -37.3 l -128.1,564.8"
         style="fill:#d2e4f9;fill-opacity:1;fill-rule:nonzero;stroke:none"
         id="path578" /><path
         d="m 9436.36,9031.7 h -64.55 l 0.57,5 19.48,172.2 c 0.65,5.5 5.32,9.7 10.91,9.7 l 2.06,-0.1 c 3.62,-0.4 6.94,-2 9.56,-4.4 3.06,-2.8 5.11,-6.7 5.55,-11.1 l 16.42,-171.3"
         style="fill:#a2c5f9;fill-opacity:1;fill-rule:nonzero;stroke:none"
         id="path580" /><path
         d="m 9378.04,9070.7 h -2.3 l 16.12,138.2 c 0.65,5.5 5.32,9.7 10.91,9.7 l 2.06,-0.1 1.7,-1.6 c 2.84,-3.1 4.54,-7.1 4.59,-11.6 l 0.94,-99.3 c 0.18,-19.1 -14.96,-34.8 -34.02,-35.3"
         style="fill:#afcdfb;fill-opacity:1;fill-rule:nonzero;stroke:none"
         id="path582" /><path
         d="m 9477.5,8265.5 v -5496 h -124.47 v 5496 h 124.47"
         style="fill:#a2c5f9;fill-opacity:1;fill-rule:nonzero;stroke:none"
         id="path584" /><path
         d="m 9410.51,8265.5 v -5496 h -57.48 v 5496 h 57.48"
         style="fill:#afcdfb;fill-opacity:1;fill-rule:nonzero;stroke:none"
         id="path586" /><path
         d="M 9613.47,3646.6 V 2192.4 h -396.45 v 1454.2 h 396.45"
         style="fill:#a2c5f9;fill-opacity:1;fill-rule:nonzero;stroke:none"
         id="path588" /><path
         d="M 9453.31,3646.6 V 2192.4 h -236.29 v 1454.2 h 236.29"
         style="fill:#afcdfb;fill-opacity:1;fill-rule:nonzero;stroke:none"
         id="path590" /><path
         d="m 9631.89,8948.7 c 0,-67.9 -101.98,-122.9 -227.8,-122.9 -9.61,0 -19.05,0.3 -28.35,0.9 -112.42,7.5 -199.47,59.3 -199.47,122 0,62.7 87.05,114.4 199.47,122 9.3,0.6 18.74,0.9 28.35,0.9 125.82,0 227.8,-55 227.8,-122.9"
         style="fill:#a2c5f9;fill-opacity:1;fill-rule:nonzero;stroke:none"
         id="path592" /><path
         d="m 9513.97,8948.7 c 0,-54.7 -56.95,-101.7 -138.23,-122 -112.42,7.5 -199.47,59.3 -199.47,122 0,62.7 87.05,114.4 199.47,122 81.28,-20.3 138.23,-67.3 138.23,-122"
         style="fill:#afcdfb;fill-opacity:1;fill-rule:nonzero;stroke:none"
         id="path594" /><path
         d="m 9613,8157.1 h -396.43 l -139.76,673 h 654.56 L 9613,8157.1"
         style="fill:#afcdfb;fill-opacity:1;fill-rule:nonzero;stroke:none"
         id="path596" /><path
         d="m 9766.72,8880.8 v -64.5 h -725.27 v 64.5 h 725.27"
         style="fill:#a2c5f9;fill-opacity:1;fill-rule:nonzero;stroke:none"
         id="path598" /><path
         d="m 9497.38,8880.8 v -64.5 h -455.93 v 64.5 h 455.93"
         style="fill:#afcdfb;fill-opacity:1;fill-rule:nonzero;stroke:none"
         id="path600" /><path
         d="m 9281.97,3646.6 h 253.32 l -37.08,112.4 c -3.29,10 -12.6,16.7 -23.1,16.7 h -118.67 c -12.88,0 -24.48,-7.7 -29.37,-19.6 l -45.1,-109.5"
         style="fill:#a2c5f9;fill-opacity:1;fill-rule:nonzero;stroke:none"
         id="path602" /><path
         d="m 9123.64,8797.3 h 559.05 L 9573.5,8192.4 h -321.01 l -128.85,604.9"
         style="fill:#c7dcf9;fill-opacity:1;fill-rule:nonzero;stroke:none"
         id="path604" /><path
         d="m 9191.34,8941.5 c 0,0 42.59,93 126.66,90.2 0,0 -53.5,-47.7 -48.59,-90.2 4.92,-42.6 -78.07,0 -78.07,0"
         style="fill:#c7dcf9;fill-opacity:1;fill-rule:nonzero;stroke:none"
         id="path606" /><path
         d="m 9720.38,8880.8 h -632.59 l 51.79,73.8 h 531.63 l 49.17,-73.8"
         style="fill:#a2c5f9;fill-opacity:1;fill-rule:nonzero;stroke:none"
         id="path608" /><path
         d="m 9564.59,8880.8 h -476.8 l 51.79,73.8 h 375.84 l 49.17,-73.8"
         style="fill:#afcdfb;fill-opacity:1;fill-rule:nonzero;stroke:none"
         id="path610" /><path
         d="m 9160.77,8776.2 h 128.11 l 37.31,-564.8 h -37.31 l -128.11,564.8"
         style="fill:#d2e4f9;fill-opacity:1;fill-rule:nonzero;stroke:none"
         id="path612" /><path
         d="m 13091.4,10704.7 -0.8,-0.6 c -1.7,-0.3 -1.4,-0.1 0.8,0.6"
         style="fill:#ffb27d;fill-opacity:1;fill-rule:nonzero;stroke:none"
         id="path614" /><path
         d="m 13102.2,7707.5 c 0,0 0,-0.6 0,-1.8 0,-0.9 0,-2.2 -0.1,-3.6 -4.1,-160.9 -15.6,-329 -32,-498.9 -23.8,-244.7 -58,-492.7 -95.9,-726.7 v -0.5 c -6.6,-40.7 -13.3,-80.9 -20,-120.6 -5.4,-32.8 -11,-65.4 -16.8,-97.1 -12.9,-72.9 -25.9,-143.6 -38.9,-211.8 -10.6,-56 -21.3,-110.3 -31.7,-162.3 -67.1,-334.3 -126.8,-581.7 -145.2,-655.6 v -0.4 c -3.6,-14.5 14.2,-62.1 19.9,-75.8 185.1,-425.3 142.3,-596.5 105.1,-1011.5 -74.8,-834.4 -268.8,-1584.5 -268.8,-1584.5 l -328,-308.3 c 0,0 103.8,574.4 -24.3,1604.8 -40,321.9 -102.6,688.4 -198.3,1095.6 -106.4,453.4 -363.4,1632.9 -395,2500.8 -3.3,89.9 23.7,995.4 198.6,1362.4 45.4,95.2 401.3,-130.3 401.3,-130.3 l 365.9,-2.8 364.6,-2.8 c 2.9,-5.5 5.8,-11.2 8.6,-17 62.1,-127.9 99.4,-297.1 118,-492.1 13.4,-141.4 16.9,-296.5 13,-459.2"
         style="fill:#2a4e96;fill-opacity:1;fill-rule:nonzero;stroke:none"
         id="path616" /><path
         d="m 13102.2,7707.5 c 0,0 0,-0.6 0,-1.8 0,-0.9 0,-2.2 -0.1,-3.6 -4.1,-160.9 -15.6,-329 -32,-498.9 -23.8,-244.7 -58,-492.7 -95.9,-726.7 v -0.5 c -6.6,-40.7 -13.3,-80.9 -20,-120.6 -5.4,-32.8 -11,-65.4 -16.8,-97.1 -12.9,-72.9 -25.9,-143.6 -38.9,-211.8 -10.6,-56 -21.3,-110.3 -31.7,-162.3 0,0 -997.2,2356.3 -1007.6,2387.3 l 738.8,407.1 364.6,-2.8 c 2.9,-5.5 5.8,-11.2 8.6,-17 62.1,-127.9 99.4,-297.1 118,-492.1 13.4,-141.4 16.9,-296.5 13,-459.2"
         style="fill:#233862;fill-opacity:1;fill-rule:nonzero;stroke:none"
         id="path618" /><path
         d="m 12213.8,2165.9 1.2,1.3 c 6.6,6.6 39.3,35.4 110,25.7 46.5,-6.4 80,-19.7 125.3,-27.2 l 135.6,-0.8 c 116.7,13.8 110.4,46.4 110.4,46.4 0,0 -11.1,28.1 -24.3,67.7 -21.7,65.4 -48.8,162 -39.9,213.8 6.4,36.8 -1.2,66.7 -11.8,88.5 -13.2,27.6 -31,42.5 -31,42.5 0,0 -95.8,-112.9 -151.4,-65.5 -107.4,91.9 -132.2,99.7 -137.4,99.8 l -1.3,-0.3 c 0,0 -238.4,-148.5 -300.8,-204.2 -110.9,-99.1 -231.4,-114.1 -292.6,-131.4 -24.7,-7 -44.9,-25 -54.2,-48.9 -13.8,-35.2 -28.1,-83 -13.7,-103.8 l 575.9,-3.6"
         style="fill:#f99746;fill-opacity:1;fill-rule:nonzero;stroke:none"
         id="path620" /><path
         d="m 11970.3,11356.5 c 0,0 -228.6,-1452 -597,-2007.7 -185.3,-279.5 -1463.76,801.9 -1463.76,801.9 l 147.16,87.7 c 0,0 1001.1,-490.2 1034,-433.7 32.8,56.6 143.8,1219.7 344.4,1383 200.7,163.2 535.2,168.8 535.2,168.8"
         style="fill:#ffb27d;fill-opacity:1;fill-rule:nonzero;stroke:none"
         id="path622" /><path
         d="m 12067.2,12030.5 c 0,0 -289.1,17 -418.9,479.7 -100.5,357.9 100.7,798.6 616.9,759.4 0,0 341.5,33.3 459,-246.8 52,-123.8 136.5,-172.7 -13.1,-628.7 l -36.5,-153.1 -607.4,-210.5"
         style="fill:#233862;fill-opacity:1;fill-rule:nonzero;stroke:none"
         id="path624" /><path
         d="m 12648.3,12455.2 c 0,0 175.4,-205.4 374.8,-166.6 199.3,38.8 594.4,167.8 747.3,-14.1 153,-181.9 -61,-596.3 90.1,-751.4 151,-155 29.5,-630.2 -660.7,-472.3 -690.3,157.9 -666.1,921.5 -653.4,1026.1 12.7,104.6 101.9,378.3 101.9,378.3"
         style="fill:#233862;fill-opacity:1;fill-rule:nonzero;stroke:none"
         id="path626" /><path
         d="m 15915.7,4672.6 -31,-208.3 c 0,0 -828.4,257.1 -1756.6,503.3 -292.8,77.7 -595.4,154.2 -885.2,221.4 -296.8,68.7 -1178,3857.9 -1178,3857.9 0,0 1302.6,130.5 1639.9,-509.6 527.4,-1001 -63.4,-2683.2 349.5,-2745.2 95.9,-14.5 197.7,-43.4 302.2,-83.1 714.1,-270.5 1559.2,-1036.4 1559.2,-1036.4"
         style="fill:#2a4e96;fill-opacity:1;fill-rule:nonzero;stroke:none"
         id="path628" /><path
         d="m 11668.7,11362.8 c 0,0 399.6,192 787.3,220.9 387.7,28.8 847.4,-17.6 948.3,-120.1 52.2,-53.1 222.4,-470.2 149.9,-802 -82,-375 -111.3,-557.7 -117.7,-794.1 -12.6,-464.7 126.8,-712.7 313,-1235.9 122.3,-343.4 -1139.8,-1061.5 -2057.8,-377.9 29.2,380.5 166.2,1296.1 66.5,1465.3 -288.4,489.4 -278.4,1509.1 -89.5,1643.8"
         style="fill:#f99746;fill-opacity:1;fill-rule:nonzero;stroke:none"
         id="path630" /><path
         d="m 13408.8,11460.9 c 0,0 961.1,-1099.8 1066.2,-1418.2 105.1,-318.4 -1356.9,-951.7 -1356.9,-951.7 l -61.1,230.3 c 0,0 840.2,675.5 815.1,735.9 -25,60.4 -645.4,617.2 -653.5,875.8 -8.2,258.5 190.2,527.9 190.2,527.9"
         style="fill:#ffb27d;fill-opacity:1;fill-rule:nonzero;stroke:none"
         id="path632" /><path
         d="m 12230.5,11196.5 c -382.3,-12 -236.1,176.7 -187.1,243.8 6.7,9.2 11.9,19.3 15.4,30.1 26.8,81 24.4,242.4 16.7,351.7 -8.1,117.4 -23.7,240.2 -29,281.3 v 0.1 c -1.3,9.3 -2,14.3 -2,14.3 l 478.8,128.5 85.3,-152.4 17.8,-32 c 2.3,-37.8 18.2,-146.4 45.7,-252.5 23.3,-89.8 55,-177.7 93.9,-219 26.7,-28.3 46.3,-375.5 -535.5,-393.9"
         style="fill:#ffb27d;fill-opacity:1;fill-rule:nonzero;stroke:none"
         id="path634" /><path
         d="m 12672.1,11809.4 c -366.9,9.1 -619.1,286.7 -625.6,294 l -0.1,0.1 h 0.1 c 151.5,46.8 372.7,27.6 562.1,-9.6 l 17.8,-32 c 2.3,-37.8 18.2,-146.4 45.7,-252.5"
         style="fill:#ed975d;fill-opacity:1;fill-rule:nonzero;stroke:none"
         id="path636" /><path
         d="m 12651.9,11927.1 c 0,0 -641.8,-53.4 -668.9,346.8 -27.1,400.2 -128.2,662.8 280.4,713.8 408.7,51.1 498.7,-96.3 540.2,-227.6 41.6,-131.4 14.6,-808.8 -151.7,-833"
         style="fill:#ffb27d;fill-opacity:1;fill-rule:nonzero;stroke:none"
         id="path638" /><path
         d="m 12555.4,13017 c 0,0 -144.6,-481.2 -410,-568.6 -265.3,-87.5 -387.2,-22.9 -387.2,-22.9 0,0 196.1,178.3 219.9,468.3 0,0 429.7,337.9 577.3,123.2"
         style="fill:#233862;fill-opacity:1;fill-rule:nonzero;stroke:none"
         id="path640" /><path
         d="m 12514.4,12976 c 0,0 138.3,-96.1 177.1,-195.8 38.9,-99.8 67.3,-308.7 127.9,-297.4 0,0 111.3,327.9 -49.7,498.5 -170.7,180.9 -255.3,-5.3 -255.3,-5.3"
         style="fill:#233862;fill-opacity:1;fill-rule:nonzero;stroke:none"
         id="path642" /><path
         d="m 12480,12131.5 c 0,0 26.3,-53.4 66.4,-54.6 40.2,-1.2 143,6.8 150.6,16 7.6,9.1 28.4,64.7 28.4,64.7 0,0 -168.6,6.9 -245.4,-26.1"
         style="fill:#ffffff;fill-opacity:1;fill-rule:nonzero;stroke:none"
         id="path644" /><path
         d="m 13335.5,11505.6 c 0,0 315.9,-110.3 571.5,-559.7 0,0 -46,-299.3 -440.4,-508.6 -394.5,-209.3 -356.3,633 -356.3,633 l 225.2,435.3"
         style="fill:#f99746;fill-opacity:1;fill-rule:nonzero;stroke:none"
         id="path646" /><path
         d="m 11725.4,11388.2 c 0,0 -307.4,-127.4 -358.5,-254.6 -78.2,-194.6 -167.8,-516.2 -167.8,-516.2 0,0 125.2,-300.3 549.2,-376 397.3,-71 -22.9,1146.8 -22.9,1146.8"
         style="fill:#f99746;fill-opacity:1;fill-rule:nonzero;stroke:none"
         id="path648" /><path
         d="m 13124,9348.8 144.2,-134 c 0,0 -163.9,-282.3 -241.1,-303.1 l -7.9,-0.9 c -81.6,-8.5 -268.6,140 -289.4,277.5 -1.5,14.1 0.3,27 5.4,38.7 38.3,78.4 229.2,107.3 328.5,117.1 36.3,3.6 60.3,4.7 60.3,4.7"
         style="fill:#ffb27d;fill-opacity:1;fill-rule:nonzero;stroke:none"
         id="path650" /><path
         d="m 10141.2,10197.4 -52.1,-157.4 c 0,0 -166.17,16.8 -264.83,51.8 -37.77,13.3 -92.12,51.2 -98.4,90.7 -13.86,87.3 -1.83,253.3 78.68,315.4 11.62,8.1 23.78,12.8 36.45,14 87.18,4.6 300.2,-314.5 300.2,-314.5"
         style="fill:#ffb27d;fill-opacity:1;fill-rule:nonzero;stroke:none"
         id="path652" /><path
         d="m 16189.7,4518.1 c 0,0 -0.5,0.3 -1.5,1.1 -7.3,5.7 -39.7,34.9 -38.2,106.2 1,47 10.4,81.8 12.5,127.7 l -14.7,134.7 c -27.3,114.4 -58.9,104.4 -58.9,104.4 0,0 -26.7,-14.3 -64.5,-32 -62.4,-29.1 -155.2,-67.2 -207.7,-64.3 -37.3,2.1 -66.1,-8.9 -86.6,-22 -25.9,-16.2 -38.6,-35.6 -38.6,-35.6 0,0 123.2,-82.2 82.5,-142.9 -78.8,-117.3 -83.7,-142.8 -83.2,-148 l 0.4,-1.2 c 0,0 175.1,-219.7 237.6,-275.3 111.2,-98.7 140,-216.6 164.3,-275.4 9.8,-23.8 30,-41.7 54.8,-48.2 36.6,-9.7 85.7,-18.3 104.7,-1.6 l -62.9,572.4"
         style="fill:#f99746;fill-opacity:1;fill-rule:nonzero;stroke:none"
         id="path654" /><path
         d="m 7863.22,2129.8 -4157.63,1.2 c 0,0 -132.65,322.7 -306.49,855.7 193.94,46.4 729.44,147.2 1102.49,-42.9 463.04,-236.1 402.41,-550 975.88,-434.9 573.35,115.1 1046.44,163.3 1303.24,0 256.81,-163.4 445.29,-98.4 764.74,-97.4 264.85,0.8 310.07,-209.8 317.77,-281.7"
         style="fill:#a8d29f;fill-opacity:1;fill-rule:nonzero;stroke:none"
         id="path656" /><path
         d="M 30337.7,2117 H 1977.81 c -17.71,0 -32.2,14.5 -32.2,32.2 v 11 c 0,17.7 14.49,32.2 32.2,32.2 H 30337.7 c 17.7,0 32.2,-14.5 32.2,-32.2 v -11 c 0,-17.7 -14.5,-32.2 -32.2,-32.2"
         style="fill:#2e3552;fill-opacity:1;fill-rule:nonzero;stroke:none"
         id="path658" /><path
         d="M 8133.73,3308.3 H 4340.13 L 4164.79,4200 h 3786.73 l 182.21,-891.7"
         style="fill:#d36d1a;fill-opacity:1;fill-rule:nonzero;stroke:none"
         id="path660" /><path
         d="M 8198.53,3308.3 H 4404.93 L 4229.59,4200 h 3786.73 l 182.21,-891.7"
         style="fill:#f49540;fill-opacity:1;fill-rule:nonzero;stroke:none"
         id="path662" /><path
         d="M 5459.78,3199.1 H 4423.11 c -45.86,0 -83.05,37.2 -83.05,83.1 v 26.1 h 1119.72 v -109.2"
         style="fill:#d36d1a;fill-opacity:1;fill-rule:nonzero;stroke:none"
         id="path664" /><path
         d="m 8896.85,3199.1 h -3445.4 v 109.2 h 3445.4 v -109.2"
         style="fill:#ffa255;fill-opacity:1;fill-rule:nonzero;stroke:none"
         id="path666" /><path
         d="m 4566.54,3199.1 -64.95,-255.3 v -0.3 l -192.26,-756.6 c -2.59,-9.9 -11.43,-16.8 -21.5,-16.8 -19.51,0 -34.3,17.9 -30.5,36.9 l 171.54,882.5 21.34,109.6 h 116.33"
         style="fill:#ffa255;fill-opacity:1;fill-rule:nonzero;stroke:none"
         id="path668" /><path
         d="m 4501.59,2943.8 c 6.26,130.6 -72.72,145.7 -72.72,145.7 l 21.34,109.6 h 116.33 l -64.95,-255.3"
         style="fill:#d36d1a;fill-opacity:1;fill-rule:nonzero;stroke:none"
         id="path670" /><path
         d="m 5389.46,3199.1 -64.95,-255.3 v -0.3 l -192.26,-756.6 c -2.59,-9.9 -11.43,-16.8 -21.5,-16.8 -19.51,0 -34.3,17.9 -30.49,36.9 l 171.53,882.5 21.34,109.6 h 116.33"
         style="fill:#ffa255;fill-opacity:1;fill-rule:nonzero;stroke:none"
         id="path672" /><path
         d="m 5324.51,2943.8 c 6.26,130.6 -72.72,145.7 -72.72,145.7 l 21.34,109.6 h 116.33 l -64.95,-255.3"
         style="fill:#d36d1a;fill-opacity:1;fill-rule:nonzero;stroke:none"
         id="path674" /><path
         d="m 8582.44,3199.1 64.95,-255.3 v -0.3 l 192.26,-756.6 c 2.59,-9.9 11.43,-16.8 21.5,-16.8 19.51,0 34.3,17.9 30.49,36.9 l -171.53,882.5 -21.34,109.6 h -116.33"
         style="fill:#ffa255;fill-opacity:1;fill-rule:nonzero;stroke:none"
         id="path676" /><path
         d="m 8647.39,2943.8 c -6.26,130.6 72.72,145.7 72.72,145.7 l -21.34,109.6 h -116.33 l 64.95,-255.3"
         style="fill:#d36d1a;fill-opacity:1;fill-rule:nonzero;stroke:none"
         id="path678" /><path
         d="m 7759.52,3199.1 64.95,-255.3 v -0.3 l 192.26,-756.6 c 2.59,-9.9 11.43,-16.8 21.5,-16.8 19.51,0 34.3,17.9 30.49,36.9 l -171.53,882.5 -21.34,109.6 h -116.33"
         style="fill:#ffa255;fill-opacity:1;fill-rule:nonzero;stroke:none"
         id="path680" /><path
         d="m 7824.47,2943.8 c -6.26,130.6 72.72,145.7 72.72,145.7 l -21.34,109.6 h -116.33 l 64.95,-255.3"
         style="fill:#d36d1a;fill-opacity:1;fill-rule:nonzero;stroke:none"
         id="path682" /><path
         d="m 4882.96,9035.7 c -71.13,-635.6 -594.38,-477.2 -1124.48,-800.9 -25.27,-16 -52.78,-34.4 -80.35,-52.7 -218,-156.1 -488.78,-234.1 -732.06,-270.8 -126.23,-18.4 -245.57,-27.6 -348.83,-29.9 4.6,107.9 11.49,215.7 18.38,323.6 18.32,229.5 45.88,459 84.88,681.6 25.27,151.5 57.37,302.9 94.1,449.8 89.51,360.3 211.14,704.5 371.77,1030.4 447.5,-34.4 943.21,-282.3 1287.44,-582.9 275.4,-243.3 454.41,-518.7 429.15,-748.2"
         style="fill:#82b378;fill-opacity:1;fill-rule:nonzero;stroke:none"
         id="path684" /><path
         d="m 6601.84,5949.1 c -130.8,-75.7 -284.57,-123.9 -452.09,-135.4 -734.36,-45.9 -989.12,-319 -1583.46,-897.3 -477.36,-463.6 -1225.5,-383.2 -1597.28,-385.5 -29.83,128.5 -59.66,263.9 -87.2,399.3 -188.2,906.5 -323.56,1939.2 -284.57,2951.2 4.6,107.9 11.49,215.7 18.38,323.6 18.32,229.5 45.88,459 84.88,681.6 330.48,-103.3 679.29,-399.3 1057.98,-651.8 403.9,-270.8 842.21,-491.1 1321.86,-374 481.9,117 853.7,110.1 1145.16,16 371.74,-117 615.02,-371.7 789.43,-683.9 240.98,-429.1 32.13,-989.1 -413.09,-1243.8"
         style="fill:#a8d29f;fill-opacity:1;fill-rule:nonzero;stroke:none"
         id="path686" /></g></g></svg>
